<?xml version="1.0" encoding="UTF-8" standalone="no"?>
<!-- Created with Inkscape (http://www.inkscape.org/) -->

<svg
   width="137.96208mm"
   height="30.337177mm"
   viewBox="0 0 137.96208 30.337177"
   version="1.1"
   id="svg1"
   inkscape:version="1.3.2 (091e20ef0f, 2023-11-25, custom)"
   sodipodi:docname="design.svg"
   xmlns:inkscape="http://www.inkscape.org/namespaces/inkscape"
   xmlns:sodipodi="http://sodipodi.sourceforge.net/DTD/sodipodi-0.dtd"
   xmlns:xlink="http://www.w3.org/1999/xlink"
   xmlns="http://www.w3.org/2000/svg"
   xmlns:svg="http://www.w3.org/2000/svg">
  <sodipodi:namedview
     id="namedview1"
     pagecolor="#ffffff"
     bordercolor="#000000"
     borderopacity="0.25"
     inkscape:showpageshadow="2"
     inkscape:pageopacity="0.0"
     inkscape:pagecheckerboard="0"
     inkscape:deskcolor="#d1d1d1"
     inkscape:document-units="mm"
     showguides="true"
     inkscape:zoom="1.4142136"
     inkscape:cx="202.23254"
     inkscape:cy="-49.143921"
     inkscape:window-width="1869"
     inkscape:window-height="1017"
     inkscape:window-x="0"
     inkscape:window-y="0"
     inkscape:window-maximized="1"
     inkscape:current-layer="layer1" />
  <defs
     id="defs1">
    <linearGradient
       id="linearGradient359"
       inkscape:collect="always">
      <stop
         style="stop-color:#161818;stop-opacity:1;"
         offset="0"
         id="stop359" />
      <stop
         style="stop-color:#3d4242;stop-opacity:1;"
         offset="1"
         id="stop360" />
    </linearGradient>
    <linearGradient
       id="linearGradient165"
       inkscape:collect="always">
      <stop
         style="stop-color:#aeaeae;stop-opacity:1;"
         offset="0"
         id="stop165" />
      <stop
         style="stop-color:#414141;stop-opacity:1;"
         offset="0.78513229"
         id="stop166" />
    </linearGradient>
    <linearGradient
       inkscape:collect="always"
       xlink:href="#linearGradient165"
       id="linearGradient356"
       gradientUnits="userSpaceOnUse"
       gradientTransform="matrix(0.74166993,0,0,0.86770164,71.555228,-20.788695)"
       x1="85.213043"
       y1="156.61485"
       x2="85.213043"
       y2="155.1748" />
    <linearGradient
       inkscape:collect="always"
       xlink:href="#linearGradient359"
       id="linearGradient360"
       x1="81.366478"
       y1="24.649143"
       x2="167.03362"
       y2="184.68961"
       gradientUnits="userSpaceOnUse"
       gradientTransform="matrix(1,0,0,0.66444407,0,40.146566)" />
  </defs>
  <g
     inkscape:label="Calque 1"
     inkscape:groupmode="layer"
     id="layer1"
     transform="translate(-35.721954,-104.47336)">
    <rect
       style="fill:#cfcfcf;fill-opacity:1;stroke:none;stroke-width:0.181;stroke-dasharray:none;stroke-dashoffset:0;stroke-opacity:1"
       id="rect360"
       width="34.302299"
       height="6.1825681"
       x="94.982834"
       y="124.86765"
       ry="0.095858" />
    <rect
       style="fill:url(#linearGradient360);stroke-width:16.5202"
       id="rect261"
       width="137.96208"
       height="30.337177"
       x="35.721954"
       y="104.47336" />
    <path
       style="font-size:16.9576px;font-family:Roboto;-inkscape-font-specification:'Roboto, Normal';fill:#5a5a5a;stroke-width:0.909869"
       d="m 44.74462,117.15203 v 4.71964 h -1.589775 v -12.05579 h 4.446402 q 1.978939,0 3.096749,1.01017 1.126091,1.01017 1.126091,2.67446 0,1.75538 -1.10125,2.70759 -1.092971,0.94393 -3.13815,0.94393 z m 0,-1.29997 h 2.856627 q 1.275132,0 1.954099,-0.59617 0.678966,-0.60444 0.678966,-1.73882 0,-1.07641 -0.678966,-1.72225 -0.678967,-0.64585 -1.863018,-0.67069 H 44.74462 Z m 10.813782,6.01961 h -1.589775 v -12.05579 h 1.589775 z m 12.171715,0 h -1.598055 l -6.069298,-9.29024 v 9.29024 h -1.598055 v -12.05579 h 1.598055 l 6.085858,9.33165 v -9.33165 h 1.581495 z m 5.887134,-5.60561 -1.473854,1.53182 v 4.07379 h -1.589775 v -12.05579 h 1.589775 v 5.96166 l 5.357211,-5.96166 h 1.920978 l -4.744485,5.32409 5.117088,6.7317 h -1.904418 z m 14.365936,1.80506 0.231842,1.58977 0.339484,-1.43245 2.384662,-8.41256 h 1.341373 l 2.326702,8.41256 0.331203,1.45729 0.256682,-1.62289 1.871298,-8.24696 h 1.598055 l -2.922868,12.05579 h -1.449013 l -2.484024,-8.78516 -0.190442,-0.91909 -0.190441,0.91909 -2.575105,8.78516 h -1.449013 l -2.914588,-12.05579 h 1.589775 z m 18.746093,0.65412 h -5.05084 l -1.13437,3.14643 h -1.63946 l 4.60372,-12.05579 h 1.39106 l 4.612,12.05579 h -1.63118 z m -4.5706,-1.30825 h 4.09864 l -2.05346,-5.63873 z m 10.57366,3.15471 h 5.71325 v 1.29997 h -7.31131 v -12.05579 h 1.59806 z m 9.12465,0 h 5.71325 v 1.29997 h -7.31131 v -12.05579 h 1.59806 z"
       id="text262"
       aria-label="PINK WALL" />
    <g
       id="text263"
       style="font-size:10.9013px;fill:#cfcfcf;stroke-width:0.909869"
       transform="rotate(-0.49971509)"
       aria-label="PINK WALL">
      <path
         style="font-size:16.9576px;font-family:Roboto;-inkscape-font-specification:'Roboto, Normal';fill:#f3aaf4"
         d="m 42.275909,117.04017 v 4.71964 h -1.589775 v -12.05579 h 4.446401 q 1.978939,0 3.09675,1.01017 1.12609,1.01017 1.12609,2.67446 0,1.75538 -1.10125,2.70759 -1.09297,0.94393 -3.13815,0.94393 z m 0,-1.29998 h 2.856626 q 1.275132,0 1.954099,-0.59616 0.678966,-0.60445 0.678966,-1.73882 0,-1.07641 -0.678966,-1.72225 -0.678967,-0.64585 -1.863018,-0.67069 h -2.947707 z m 10.813781,6.01962 h -1.589775 v -12.05579 h 1.589775 z m 12.171715,0 H 63.66335 l -6.069297,-9.29025 v 9.29025 h -1.598055 v -12.05579 h 1.598055 l 6.085857,9.33165 v -9.33165 h 1.581495 z m 5.887134,-5.60561 -1.473853,1.53181 v 4.0738 h -1.589775 v -12.05579 h 1.589775 v 5.96165 l 5.35721,-5.96165 h 1.920978 l -4.744485,5.32409 5.117089,6.7317 H 75.42106 Z"
         id="path473" />
      <path
         style="font-size:16.9576px;font-family:Roboto;-inkscape-font-specification:'Roboto, Normal'"
         d="m 85.514475,117.95926 0.231843,1.58977 0.339483,-1.43245 2.384662,-8.41256 h 1.341373 l 2.326702,8.41256 0.331203,1.45729 0.256682,-1.62289 1.871298,-8.24696 h 1.598055 l -2.922868,12.05579 h -1.449013 l -2.484024,-8.78516 -0.190441,-0.91909 -0.190442,0.91909 -2.575104,8.78516 H 84.93487 l -2.914587,-12.05579 h 1.589774 z m 18.746095,0.65412 h -5.050846 l -1.134371,3.14643 h -1.639455 l 4.603722,-12.05579 h 1.39105 l 4.61201,12.05579 h -1.63118 z m -4.570601,-1.30825 h 4.098641 l -2.05346,-5.63873 z m 10.573661,3.15471 h 5.71325 v 1.29997 h -7.31131 v -12.05579 h 1.59806 z m 9.12465,0 h 5.71325 v 1.29997 h -7.31131 v -12.05579 h 1.59806 z"
         id="path474" />
    </g>
    <rect
       style="fill:url(#linearGradient356);stroke:none;stroke-width:0.291775;stroke-dasharray:none;stroke-dashoffset:0;stroke-opacity:1"
       id="rect309"
       width="34.437073"
       height="5.2119102"
       x="132.91122"
       y="114.54216"
       ry="0.47759917" />
    <rect
       style="fill:#555555;fill-opacity:1;stroke:none;stroke-width:0.206646;stroke-dasharray:none;stroke-dashoffset:0;stroke-opacity:1"
       id="rect310"
       width="0.32148647"
       height="1.5540197"
       x="135.13811"
       y="118.20298"
       ry="0.066249892" />
    <rect
       style="fill:#555555;fill-opacity:1;stroke:none;stroke-width:0.160599;stroke-dasharray:none;stroke-dashoffset:0;stroke-opacity:1"
       id="rect311"
       width="0.32148647"
       height="0.93860745"
       x="135.87549"
       y="118.81837"
       ry="0.040014062" />
    <rect
       style="fill:#555555;fill-opacity:1;stroke:none;stroke-width:0.160599;stroke-dasharray:none;stroke-dashoffset:0;stroke-opacity:1"
       id="rect312"
       width="0.32148647"
       height="0.93860745"
       x="136.6129"
       y="118.81837"
       ry="0.040014062" />
    <rect
       style="fill:#555555;fill-opacity:1;stroke:none;stroke-width:0.160599;stroke-dasharray:none;stroke-dashoffset:0;stroke-opacity:1"
       id="rect313"
       width="0.32148647"
       height="0.93860745"
       x="137.35028"
       y="118.81837"
       ry="0.040014062" />
    <rect
       style="fill:#555555;fill-opacity:1;stroke:none;stroke-width:0.206646;stroke-dasharray:none;stroke-dashoffset:0;stroke-opacity:1"
       id="rect314"
       width="0.32148647"
       height="1.5540197"
       x="138.08768"
       y="118.20298"
       ry="0.066249892" />
    <rect
       style="fill:#555555;fill-opacity:1;stroke:none;stroke-width:0.160599;stroke-dasharray:none;stroke-dashoffset:0;stroke-opacity:1"
       id="rect315"
       width="0.32148647"
       height="0.93860745"
       x="138.82225"
       y="118.81837"
       ry="0.040014062" />
    <rect
       style="fill:#555555;fill-opacity:1;stroke:none;stroke-width:0.160599;stroke-dasharray:none;stroke-dashoffset:0;stroke-opacity:1"
       id="rect316"
       width="0.32148647"
       height="0.93860745"
       x="139.55963"
       y="118.81837"
       ry="0.040014062" />
    <rect
       style="fill:#555555;fill-opacity:1;stroke:none;stroke-width:0.160599;stroke-dasharray:none;stroke-dashoffset:0;stroke-opacity:1"
       id="rect317"
       width="0.32148647"
       height="0.93860745"
       x="140.29703"
       y="118.81837"
       ry="0.040014062" />
    <rect
       style="fill:#555555;fill-opacity:1;stroke:none;stroke-width:0.206646;stroke-dasharray:none;stroke-dashoffset:0;stroke-opacity:1"
       id="rect318"
       width="0.32148647"
       height="1.5540197"
       x="141.03441"
       y="118.20298"
       ry="0.066249892" />
    <rect
       style="fill:#555555;fill-opacity:1;stroke:none;stroke-width:0.160599;stroke-dasharray:none;stroke-dashoffset:0;stroke-opacity:1"
       id="rect319"
       width="0.32148647"
       height="0.93860745"
       x="141.7728"
       y="118.81837"
       ry="0.040014062" />
    <rect
       style="fill:#555555;fill-opacity:1;stroke:none;stroke-width:0.160599;stroke-dasharray:none;stroke-dashoffset:0;stroke-opacity:1"
       id="rect320"
       width="0.32148647"
       height="0.93860745"
       x="142.51019"
       y="118.81837"
       ry="0.040014062" />
    <rect
       style="fill:#555555;fill-opacity:1;stroke:none;stroke-width:0.160599;stroke-dasharray:none;stroke-dashoffset:0;stroke-opacity:1"
       id="rect321"
       width="0.32148647"
       height="0.93860745"
       x="143.24757"
       y="118.81837"
       ry="0.040014062" />
    <rect
       style="fill:#555555;fill-opacity:1;stroke:none;stroke-width:0.206646;stroke-dasharray:none;stroke-dashoffset:0;stroke-opacity:1"
       id="rect322"
       width="0.32148647"
       height="1.5540197"
       x="143.98497"
       y="118.20298"
       ry="0.066249892" />
    <rect
       style="fill:#555555;fill-opacity:1;stroke:none;stroke-width:0.160599;stroke-dasharray:none;stroke-dashoffset:0;stroke-opacity:1"
       id="rect323"
       width="0.32148647"
       height="0.93860745"
       x="144.71954"
       y="118.81837"
       ry="0.040014062" />
    <rect
       style="fill:#555555;fill-opacity:1;stroke:none;stroke-width:0.160599;stroke-dasharray:none;stroke-dashoffset:0;stroke-opacity:1"
       id="rect324"
       width="0.32148647"
       height="0.93860745"
       x="145.45692"
       y="118.81837"
       ry="0.040014062" />
    <rect
       style="fill:#555555;fill-opacity:1;stroke:none;stroke-width:0.160599;stroke-dasharray:none;stroke-dashoffset:0;stroke-opacity:1"
       id="rect325"
       width="0.32148647"
       height="0.93860745"
       x="146.19432"
       y="118.81837"
       ry="0.040014062" />
    <rect
       style="fill:#555555;fill-opacity:1;stroke:none;stroke-width:0.206646;stroke-dasharray:none;stroke-dashoffset:0;stroke-opacity:1"
       id="rect326"
       width="0.32148647"
       height="1.5540197"
       x="146.9317"
       y="118.20298"
       ry="0.066249892" />
    <rect
       style="fill:#555555;fill-opacity:1;stroke:none;stroke-width:0.160599;stroke-dasharray:none;stroke-dashoffset:0;stroke-opacity:1"
       id="rect327"
       width="0.32148647"
       height="0.93860745"
       x="147.66414"
       y="118.81837"
       ry="0.040014062" />
    <rect
       style="fill:#555555;fill-opacity:1;stroke:none;stroke-width:0.160599;stroke-dasharray:none;stroke-dashoffset:0;stroke-opacity:1"
       id="rect328"
       width="0.32148647"
       height="0.93860745"
       x="148.40152"
       y="118.81837"
       ry="0.040014062" />
    <rect
       style="fill:#555555;fill-opacity:1;stroke:none;stroke-width:0.160599;stroke-dasharray:none;stroke-dashoffset:0;stroke-opacity:1"
       id="rect329"
       width="0.32148647"
       height="0.93860745"
       x="149.1389"
       y="118.81837"
       ry="0.040014062" />
    <rect
       style="fill:#555555;fill-opacity:1;stroke:none;stroke-width:0.206646;stroke-dasharray:none;stroke-dashoffset:0;stroke-opacity:1"
       id="rect330"
       width="0.32148647"
       height="1.5540197"
       x="149.87631"
       y="118.20298"
       ry="0.066249892" />
    <rect
       style="fill:#555555;fill-opacity:1;stroke:none;stroke-width:0.160599;stroke-dasharray:none;stroke-dashoffset:0;stroke-opacity:1"
       id="rect331"
       width="0.32148647"
       height="0.93860745"
       x="150.61469"
       y="118.81837"
       ry="0.040014062" />
    <rect
       style="fill:#555555;fill-opacity:1;stroke:none;stroke-width:0.160599;stroke-dasharray:none;stroke-dashoffset:0;stroke-opacity:1"
       id="rect332"
       width="0.32148647"
       height="0.93860745"
       x="151.35208"
       y="118.81837"
       ry="0.040014062" />
    <rect
       style="fill:#555555;fill-opacity:1;stroke:none;stroke-width:0.160599;stroke-dasharray:none;stroke-dashoffset:0;stroke-opacity:1"
       id="rect333"
       width="0.32148647"
       height="0.93860745"
       x="152.08948"
       y="118.81837"
       ry="0.040014062" />
    <rect
       style="fill:#555555;fill-opacity:1;stroke:none;stroke-width:0.206646;stroke-dasharray:none;stroke-dashoffset:0;stroke-opacity:1"
       id="rect334"
       width="0.32148647"
       height="1.5540197"
       x="152.82686"
       y="118.20298"
       ry="0.066249892" />
    <rect
       style="fill:#555555;fill-opacity:1;stroke:none;stroke-width:0.160599;stroke-dasharray:none;stroke-dashoffset:0;stroke-opacity:1"
       id="rect335"
       width="0.32148647"
       height="0.93860745"
       x="153.56145"
       y="118.81837"
       ry="0.040014062" />
    <rect
       style="fill:#555555;fill-opacity:1;stroke:none;stroke-width:0.160599;stroke-dasharray:none;stroke-dashoffset:0;stroke-opacity:1"
       id="rect336"
       width="0.32148647"
       height="0.93860745"
       x="154.29884"
       y="118.81837"
       ry="0.040014062" />
    <rect
       style="fill:#555555;fill-opacity:1;stroke:none;stroke-width:0.160599;stroke-dasharray:none;stroke-dashoffset:0;stroke-opacity:1"
       id="rect337"
       width="0.32148647"
       height="0.93860745"
       x="155.03621"
       y="118.81837"
       ry="0.040014062" />
    <rect
       style="fill:#555555;fill-opacity:1;stroke:none;stroke-width:0.206646;stroke-dasharray:none;stroke-dashoffset:0;stroke-opacity:1"
       id="rect338"
       width="0.32148647"
       height="1.5540197"
       x="155.77357"
       y="118.20298"
       ry="0.066249892" />
    <rect
       style="fill:#555555;fill-opacity:1;stroke:none;stroke-width:0.160599;stroke-dasharray:none;stroke-dashoffset:0;stroke-opacity:1"
       id="rect339"
       width="0.32148647"
       height="0.93860745"
       x="156.50504"
       y="118.81837"
       ry="0.040014062" />
    <rect
       style="fill:#555555;fill-opacity:1;stroke:none;stroke-width:0.160599;stroke-dasharray:none;stroke-dashoffset:0;stroke-opacity:1"
       id="rect340"
       width="0.32148647"
       height="0.93860745"
       x="157.24243"
       y="118.81837"
       ry="0.040014062" />
    <rect
       style="fill:#555555;fill-opacity:1;stroke:none;stroke-width:0.160599;stroke-dasharray:none;stroke-dashoffset:0;stroke-opacity:1"
       id="rect341"
       width="0.32148647"
       height="0.93860745"
       x="157.97981"
       y="118.81837"
       ry="0.040014062" />
    <rect
       style="fill:#555555;fill-opacity:1;stroke:none;stroke-width:0.206646;stroke-dasharray:none;stroke-dashoffset:0;stroke-opacity:1"
       id="rect342"
       width="0.32148647"
       height="1.5540197"
       x="158.71721"
       y="118.20298"
       ry="0.066249892" />
    <rect
       style="fill:#555555;fill-opacity:1;stroke:none;stroke-width:0.160599;stroke-dasharray:none;stroke-dashoffset:0;stroke-opacity:1"
       id="rect343"
       width="0.32148647"
       height="0.93860745"
       x="159.4556"
       y="118.81837"
       ry="0.040014062" />
    <rect
       style="fill:#555555;fill-opacity:1;stroke:none;stroke-width:0.160599;stroke-dasharray:none;stroke-dashoffset:0;stroke-opacity:1"
       id="rect344"
       width="0.32148647"
       height="0.93860745"
       x="160.19298"
       y="118.81837"
       ry="0.040014062" />
    <rect
       style="fill:#555555;fill-opacity:1;stroke:none;stroke-width:0.160599;stroke-dasharray:none;stroke-dashoffset:0;stroke-opacity:1"
       id="rect345"
       width="0.32148647"
       height="0.93860745"
       x="160.93037"
       y="118.81837"
       ry="0.040014062" />
    <rect
       style="fill:#555555;fill-opacity:1;stroke:none;stroke-width:0.206646;stroke-dasharray:none;stroke-dashoffset:0;stroke-opacity:1"
       id="rect346"
       width="0.32148647"
       height="1.5540197"
       x="161.66776"
       y="118.20298"
       ry="0.066249892" />
    <rect
       style="fill:#555555;fill-opacity:1;stroke:none;stroke-width:0.160599;stroke-dasharray:none;stroke-dashoffset:0;stroke-opacity:1"
       id="rect347"
       width="0.32148647"
       height="0.93860745"
       x="162.40234"
       y="118.81837"
       ry="0.040014062" />
    <rect
       style="fill:#555555;fill-opacity:1;stroke:none;stroke-width:0.160599;stroke-dasharray:none;stroke-dashoffset:0;stroke-opacity:1"
       id="rect348"
       width="0.32148647"
       height="0.93860745"
       x="163.13972"
       y="118.81837"
       ry="0.040014062" />
    <rect
       style="fill:#555555;fill-opacity:1;stroke:none;stroke-width:0.160599;stroke-dasharray:none;stroke-dashoffset:0;stroke-opacity:1"
       id="rect349"
       width="0.32148647"
       height="0.93860745"
       x="163.87709"
       y="118.81837"
       ry="0.040014062" />
    <rect
       style="fill:#555555;fill-opacity:1;stroke:none;stroke-width:0.206646;stroke-dasharray:none;stroke-dashoffset:0;stroke-opacity:1"
       id="rect350"
       width="0.32148647"
       height="1.5540197"
       x="164.6145"
       y="118.20298"
       ry="0.066249892" />
    <path
       style="font-weight:900;font-size:1.81659px;font-family:Roboto;-inkscape-font-specification:'Roboto, Heavy';fill:#555555;stroke-width:0.15162"
       d="m 135.74138,117.00877 q 0,0.26167 -0.11797,0.40359 -0.11709,0.14192 -0.33086,0.14192 -0.21554,0 -0.33351,-0.14281 -0.11797,-0.14281 -0.11797,-0.4027 v -0.23595 q 0,-0.26166 0.11708,-0.40358 0.11797,-0.14192 0.33263,-0.14192 0.21465,0 0.33263,0.1428 0.11797,0.14281 0.11797,0.40359 z m -0.29892,-0.27409 q 0,-0.13926 -0.0364,-0.20756 -0.0364,-0.0692 -0.11531,-0.0692 -0.0772,0 -0.11265,0.0639 -0.0346,0.0639 -0.0373,0.19337 v 0.32997 q 0,0.14458 0.0364,0.21199 0.0364,0.0665 0.11531,0.0665 0.0763,0 0.11265,-0.0648 0.0364,-0.0656 0.0373,-0.20489 z"
       id="text350"
       aria-label="0" />
    <path
       style="font-weight:900;font-size:1.81659px;font-family:Roboto;-inkscape-font-specification:'Roboto, Heavy';fill:#555555;stroke-width:0.15162"
       d="m 141.48137,116.22643 v 0.23505 h -0.0133 q -0.16765,0 -0.27586,0.0807 -0.10733,0.0798 -0.13217,0.22264 0.10112,-0.0993 0.25546,-0.0993 0.16765,0 0.26699,0.1224 0.0993,0.12241 0.0993,0.3211 0,0.12329 -0.0585,0.22619 -0.0576,0.10289 -0.16232,0.16143 -0.10378,0.0577 -0.23062,0.0577 -0.13749,0 -0.2457,-0.0621 -0.10822,-0.063 -0.16853,-0.17918 -0.0603,-0.1162 -0.0621,-0.26787 v -0.11975 q 0,-0.19958 0.0851,-0.35835 0.086,-0.15966 0.24481,-0.25014 0.15878,-0.0905 0.35214,-0.0905 z m -0.26965,0.66791 q -0.0594,0 -0.0993,0.0275 -0.0399,0.0275 -0.0594,0.0674 v 0.0896 q 0,0.24482 0.16942,0.24482 0.0683,0 0.11353,-0.0612 0.0461,-0.0612 0.0461,-0.15345 0,-0.0949 -0.047,-0.15434 -0.0461,-0.0603 -0.1233,-0.0603 z"
       id="text351"
       aria-label="6" />
    <path
       style="font-weight:900;font-size:1.81659px;font-family:Roboto;-inkscape-font-specification:'Roboto, Heavy';fill:#555555;stroke-width:0.15162"
       d="m 146.75176,117.55427 h -0.29981 v -0.95442 l -0.29448,0.086 v -0.22708 l 0.56679,-0.19602 h 0.0275 z m 1.2906,0 h -0.9012 v -0.19514 l 0.41512,-0.43641 q 0.15345,-0.17474 0.15345,-0.27763 0,-0.0834 -0.0364,-0.12685 -0.0364,-0.0435 -0.10555,-0.0435 -0.0683,0 -0.11088,0.0585 -0.0426,0.0577 -0.0426,0.14459 h -0.29981 q 0,-0.11886 0.0594,-0.2191 0.0594,-0.10111 0.16498,-0.15788 0.10555,-0.0568 0.23594,-0.0568 0.20934,0 0.32199,0.0967 0.11353,0.0967 0.11353,0.27764 0,0.0763 -0.0284,0.14901 -0.0284,0.0719 -0.0887,0.15168 -0.0594,0.0789 -0.19248,0.212 l -0.16676,0.19248 h 0.50826 z"
       id="text352"
       aria-label="12" />
    <path
       style="font-weight:900;font-size:1.81659px;font-family:Roboto;-inkscape-font-specification:'Roboto, Heavy';fill:#555555;stroke-width:0.15162"
       d="m 152.63625,117.53654 h -0.29981 v -0.95442 l -0.29448,0.086 v -0.22708 l 0.56679,-0.19602 h 0.0275 z m 1.26044,-0.94644 q 0,0.094 -0.047,0.16587 -0.0461,0.0718 -0.12773,0.11531 0.0923,0.0452 0.14635,0.12418 0.0541,0.0781 0.0541,0.18539 0,0.17296 -0.11974,0.2732 -0.11886,0.10023 -0.3282,0.10023 -0.21022,0 -0.33174,-0.10023 -0.12152,-0.10112 -0.12152,-0.2732 0,-0.10378 0.0532,-0.18361 0.0532,-0.0798 0.15079,-0.12596 -0.0825,-0.0435 -0.1295,-0.11531 -0.047,-0.0719 -0.047,-0.16587 0,-0.16853 0.11442,-0.2661 0.11443,-0.0976 0.30868,-0.0976 0.19603,0 0.31045,0.0976 0.11443,0.0976 0.11443,0.2661 z m -0.27409,0.5668 q 0,-0.0798 -0.0417,-0.12241 -0.0408,-0.0435 -0.10821,-0.0435 -0.0674,0 -0.1091,0.0435 -0.0417,0.0426 -0.0417,0.12241 0,0.0772 0.0417,0.12241 0.0426,0.0444 0.11087,0.0444 0.0665,0 0.10733,-0.0444 0.0408,-0.0444 0.0408,-0.12241 z m -0.15079,-0.69985 q -0.0603,0 -0.0923,0.0399 -0.031,0.039 -0.031,0.1091 0,0.0692 0.0319,0.11176 0.0319,0.0426 0.094,0.0426 0.0612,0 0.0914,-0.0426 0.031,-0.0426 0.031,-0.11176 0,-0.0692 -0.0319,-0.1091 -0.0311,-0.0399 -0.0931,-0.0399 z"
       id="text353"
       aria-label="18" />
    <path
       style="font-weight:900;font-size:1.81659px;font-family:Roboto;-inkscape-font-specification:'Roboto, Heavy';fill:#555555;stroke-width:0.15162"
       d="m 158.76701,117.55427 h -0.9012 v -0.19514 l 0.41512,-0.43641 q 0.15345,-0.17474 0.15345,-0.27763 0,-0.0834 -0.0364,-0.12685 -0.0364,-0.0435 -0.10555,-0.0435 -0.0683,0 -0.11088,0.0585 -0.0426,0.0577 -0.0426,0.14459 h -0.29981 q 0,-0.11886 0.0594,-0.2191 0.0594,-0.10111 0.16498,-0.15788 0.10556,-0.0568 0.23595,-0.0568 0.20933,0 0.32198,0.0967 0.11354,0.0967 0.11354,0.27764 0,0.0763 -0.0284,0.14901 -0.0284,0.0719 -0.0887,0.15168 -0.0594,0.0789 -0.19248,0.212 l -0.16676,0.19248 h 0.50826 z m 0.94022,-0.50471 h 0.13128 v 0.23062 h -0.13128 v 0.27409 h -0.29892 v -0.27409 h -0.49938 l -0.0177,-0.18272 0.51712,-0.83201 v -0.003 h 0.29892 z m -0.53131,0 h 0.23239 v -0.39738 l -0.0186,0.0302 z"
       id="text354"
       aria-label="24" />
    <text
       xml:space="preserve"
       style="font-style:normal;font-variant:normal;font-weight:normal;font-stretch:normal;font-size:1.81659px;font-family:sans-serif;-inkscape-font-specification:'sans-serif, ';font-variant-ligatures:normal;font-variant-caps:normal;font-variant-numeric:normal;font-variant-east-asian:normal;fill:#555555;fill-opacity:1;stroke:none;stroke-width:0.15162;stroke-dasharray:none;stroke-opacity:1"
       x="163.6825"
       y="117.53654"
       id="text355"><tspan
         sodipodi:role="line"
         id="tspan355"
         style="font-style:normal;font-variant:normal;font-weight:900;font-stretch:normal;font-size:1.81659px;font-family:Roboto;-inkscape-font-specification:'Roboto, Heavy';font-variant-ligatures:normal;font-variant-caps:normal;font-variant-numeric:normal;font-variant-east-asian:normal;fill:#555555;fill-opacity:1;stroke:none;stroke-width:0.15162"
         x="163.6825"
         y="117.53654">30</tspan></text>
    <path
       style="font-weight:900;font-size:3.38143px;font-family:Roboto;-inkscape-font-specification:'Roboto, Heavy';fill:#cfcfcf;stroke-width:0.181"
       d="m 132.76158,112.52369 h -0.57789 v -2.40399 h 0.57789 z m 2.41058,0 h -0.57623 l -0.85196,-1.49589 v 1.49589 h -0.57953 v -2.40399 h 0.57953 l 0.85031,1.49589 v -1.49589 h 0.57788 z m 2.25374,-1.95654 h -0.72152 v 1.95654 h -0.57954 v -1.95654 h -0.70831 v -0.44745 h 2.00937 z m 1.7353,0.93782 h -0.91141 v 0.57293 h 1.07651 v 0.44579 h -1.65604 v -2.40399 h 1.65935 v 0.44745 h -1.07982 v 0.50688 h 0.91141 z m 1.29445,0.17006 h -0.31371 v 0.84866 h -0.57953 v -2.40399 h 0.94607 q 0.42764,0 0.66869,0.18988 0.24106,0.18987 0.24106,0.5366 0,0.25097 -0.10236,0.41608 -0.10072,0.16511 -0.31701,0.26747 l 0.50193,0.96919 v 0.0248 h -0.62081 z m -0.31371,-0.44745 h 0.36654 q 0.16511,0 0.24767,-0.0859 0.0842,-0.0875 0.0842,-0.24271 0,-0.1552 -0.0842,-0.24271 -0.0842,-0.0892 -0.24767,-0.0892 h -0.36654 z m 3.63405,1.29611 h -0.57623 l -0.85196,-1.49589 v 1.49589 h -0.57954 v -2.40399 h 0.57954 l 0.85031,1.49589 v -1.49589 h 0.57788 z m 1.73199,-0.4491 h -0.79417 l -0.13869,0.4491 h -0.61916 l 0.88168,-2.40399 h 0.54486 l 0.88828,2.40399 h -0.62246 z m -0.65548,-0.44744 h 0.51679 l -0.25922,-0.8338 z m 2.17283,0.45075 h 1.00882 v 0.44579 h -1.58835 v -2.40399 h 0.57953 z m 4.06333,0.14859 q -0.13374,0.1486 -0.39131,0.23941 -0.25757,0.0908 -0.56467,0.0908 -0.47221,0 -0.75455,-0.28894 -0.28233,-0.28894 -0.30215,-0.80408 l -0.002,-0.20804 q 0,-0.35498 0.12549,-0.61916 0.12548,-0.26582 0.35828,-0.40781 0.23446,-0.14365 0.54156,-0.14365 0.4491,0 0.69676,0.20639 0.24931,0.20473 0.29059,0.61255 h -0.55807 q -0.0297,-0.20143 -0.12878,-0.28729 -0.0991,-0.0859 -0.28069,-0.0859 -0.21794,0 -0.33682,0.18492 -0.11888,0.18492 -0.12053,0.52835 v 0.14529 q 0,0.35994 0.12218,0.54156 0.12383,0.17997 0.38801,0.17997 0.2262,0 0.33682,-0.10072 v -0.37315 h -0.40287 v -0.39791 h 0.9824 z m 1.70227,-0.1519 h -0.79417 l -0.13869,0.4491 h -0.61916 l 0.88168,-2.40399 h 0.54486 l 0.88829,2.40399 h -0.62247 z m -0.65548,-0.44744 h 0.51679 l -0.25922,-0.8338 z m 2.21081,0.89654 h -0.57788 v -2.40399 h 0.57788 z m 2.41059,0 h -0.57623 l -0.85196,-1.49589 v 1.49589 h -0.57954 v -2.40399 h 0.57954 l 0.85031,1.49589 v -1.49589 h 0.57788 z m 1.20859,0 v -2.40399 h 0.86352 q 0.46396,0 0.70502,0.17007 0.24271,0.17006 0.24271,0.49367 0,0.18657 -0.0859,0.31866 -0.0858,0.13209 -0.25261,0.19483 0.18822,0.0495 0.28894,0.18492 0.10071,0.13539 0.10071,0.33022 0,0.35333 -0.22455,0.53165 -0.22289,0.17667 -0.66208,0.17997 z m 0.57954,-1.02202 v 0.57623 h 0.37975 q 0.15685,0 0.24106,-0.071 0.0842,-0.0726 0.0842,-0.20309 0,-0.30049 -0.29885,-0.30214 z m 0,-0.37976 h 0.30215 q 0.18987,-0.002 0.27077,-0.0693 0.0809,-0.0677 0.0809,-0.19978 0,-0.1519 -0.0875,-0.21795 -0.0875,-0.0677 -0.28234,-0.0677 h -0.28398 z m 3.63735,0.24932 q 0,0.35168 -0.13044,0.62246 -0.13044,0.27078 -0.37149,0.41773 -0.23941,0.14529 -0.54651,0.14529 -0.30711,0 -0.54486,-0.14034 -0.23776,-0.142 -0.3715,-0.40452 -0.13209,-0.26252 -0.13869,-0.60265 v -0.13538 q 0,-0.35334 0.12878,-0.62247 0.13044,-0.27077 0.3715,-0.41772 0.24271,-0.14695 0.55146,-0.14695 0.30545,0 0.54486,0.1453 0.23941,0.14529 0.3715,0.41442 0.13374,0.26748 0.13539,0.61421 z m -0.58944,-0.10072 q 0,-0.35828 -0.12053,-0.54321 -0.11888,-0.18657 -0.34178,-0.18657 -0.43588,0 -0.46065,0.65383 l -0.002,0.17667 q 0,0.35333 0.11723,0.54321 0.11722,0.18987 0.34838,0.18987 0.21959,0 0.33847,-0.18657 0.11888,-0.18657 0.12053,-0.5366 z m 2.92408,0.10072 q 0,0.35168 -0.13044,0.62246 -0.13044,0.27078 -0.3715,0.41773 -0.2394,0.14529 -0.54651,0.14529 -0.3071,0 -0.54486,-0.14034 -0.23775,-0.142 -0.37149,-0.40452 -0.13209,-0.26252 -0.13869,-0.60265 v -0.13538 q 0,-0.35334 0.12878,-0.62247 0.13044,-0.27077 0.3715,-0.41772 0.24271,-0.14695 0.55146,-0.14695 0.30545,0 0.54486,0.1453 0.23941,0.14529 0.3715,0.41442 0.13373,0.26748 0.13539,0.61421 z m -0.58944,-0.10072 q 0,-0.35828 -0.12053,-0.54321 -0.11888,-0.18657 -0.34178,-0.18657 -0.43589,0 -0.46065,0.65383 l -0.002,0.17667 q 0,0.35333 0.11722,0.54321 0.11723,0.18987 0.34838,0.18987 0.2196,0 0.33848,-0.18657 0.11888,-0.18657 0.12053,-0.5366 z m 2.12825,0.61421 q 0,-0.12714 -0.0908,-0.19813 -0.0892,-0.071 -0.31536,-0.14695 -0.2262,-0.076 -0.36984,-0.14695 -0.46726,-0.2295 -0.46726,-0.63071 0,-0.19978 0.11558,-0.35168 0.11722,-0.15356 0.33021,-0.23776 0.213,-0.0859 0.47882,-0.0859 0.25922,0 0.46396,0.0925 0.20638,0.0925 0.32031,0.26418 0.11392,0.17006 0.11392,0.38965 h -0.57788 q 0,-0.14694 -0.0908,-0.22785 -0.0892,-0.0809 -0.24271,-0.0809 -0.1552,0 -0.24601,0.0694 -0.0892,0.0677 -0.0892,0.17336 0,0.0925 0.0991,0.16841 0.0991,0.0743 0.34838,0.1552 0.24931,0.0793 0.40947,0.17172 0.38965,0.22455 0.38965,0.61916 0,0.31535 -0.23775,0.49532 -0.23776,0.17997 -0.65218,0.17997 -0.29225,0 -0.53,-0.10402 -0.23611,-0.10567 -0.35664,-0.28729 -0.11888,-0.18327 -0.11888,-0.42102 h 0.58119 q 0,0.19317 0.0991,0.28563 0.10072,0.0908 0.32527,0.0908 0.14364,0 0.2262,-0.0611 0.0842,-0.0627 0.0842,-0.17501 z m 2.76392,-1.31757 h -0.72152 v 1.95654 h -0.57953 v -1.95654 h -0.70832 v -0.44745 h 2.00937 z"
       id="text356"
       aria-label="INTERNAL GAIN BOOST" />
    <path
       style="font-weight:bold;font-size:3.65526px;font-family:'Roboto Condensed';-inkscape-font-specification:'Roboto Condensed, Bold';text-align:center;text-anchor:middle;fill:#cfcfcf;stroke-width:0.241898"
       d="m 57.4795,126.59243 h -0.52473 v -2.59866 h 0.52473 z m 0.878119,-1.93115 0.01428,0.19098 q 0.17134,-0.22667 0.447984,-0.22667 0.497957,0 0.512236,0.69785 v 1.26899 h -0.506882 v -1.23151 q 0,-0.1642 -0.04997,-0.23738 -0.04819,-0.075 -0.17134,-0.075 -0.13743,0 -0.214176,0.141 v 1.40285 h -0.506882 v -1.93115 z m 1.924009,-0.47475 v 0.47475 h 0.258795 v 0.38016 h -0.258795 v 0.95844 q 0,0.11423 0.03034,0.15706 0.03213,0.0428 0.121366,0.0428 0.07318,0 0.119582,-0.0125 l -0.0036,0.39266 q -0.128505,0.0482 -0.278428,0.0482 -0.489034,0 -0.494388,-0.56043 v -1.02626 h -0.2231 v -0.38016 h 0.2231 v -0.47475 z m 1.488519,0.962 -0.167771,-0.0143 q -0.207036,0 -0.280213,0.18205 v 1.27613 h -0.506882 v -1.93115 h 0.476541 l 0.01428,0.20882 q 0.119581,-0.24451 0.330187,-0.24451 0.08567,0 0.139214,0.0232 z m 0.135644,0.41586 q 0,-0.43906 0.207036,-0.68893 0.207037,-0.24987 0.572919,-0.24987 0.369453,0 0.576489,0.24987 0.207036,0.24987 0.207036,0.6925 v 0.12315 q 0,0.44084 -0.205251,0.68893 -0.205251,0.24809 -0.574704,0.24809 -0.371237,0 -0.578273,-0.24809 -0.205252,-0.24987 -0.205252,-0.6925 z m 0.506882,0.12672 q 0,0.51759 0.276643,0.51759 0.255226,0 0.274859,-0.43192 l 0.0018,-0.21239 q 0,-0.26415 -0.07318,-0.39087 -0.07318,-0.12851 -0.207037,-0.12851 -0.128505,0 -0.201681,0.12851 -0.07139,0.12672 -0.07139,0.39087 z m 1.3029,-0.12315 q 0,-0.47476 0.160632,-0.70857 0.160631,-0.2338 0.467616,-0.2338 0.223099,0 0.371237,0.19275 v -0.96735 h 0.508667 v 2.74144 h -0.458692 l -0.0232,-0.19633 q -0.155277,0.23203 -0.399794,0.23203 -0.303415,0 -0.464047,-0.23203 -0.158846,-0.23202 -0.162416,-0.68179 z m 0.506882,0.12672 q 0,0.28557 0.06068,0.39979 0.06068,0.11244 0.205251,0.11244 0.149923,0 0.226669,-0.13386 v -0.88168 q -0.07496,-0.14279 -0.224884,-0.14279 -0.139214,0 -0.203466,0.11244 -0.06425,0.11245 -0.06425,0.3998 z m 2.322019,0.72106 q -0.157062,0.21239 -0.421212,0.21239 -0.265934,0 -0.403364,-0.18205 -0.137429,-0.18384 -0.137429,-0.53366 v -1.25114 h 0.505097 v 1.26364 q 0.0036,0.28199 0.187404,0.28199 0.173125,0 0.249871,-0.14992 v -1.39571 h 0.508666 v 1.93115 h -0.474755 z m 1.547417,-0.20704 q 0.219529,0 0.223099,-0.28557 h 0.474756 q -0.0036,0.31591 -0.194543,0.51045 -0.190973,0.19455 -0.492604,0.19455 -0.373022,0 -0.569349,-0.23203 -0.196328,-0.23202 -0.199897,-0.68357 v -0.1535 q 0,-0.45512 0.192758,-0.69428 0.194542,-0.23916 0.572919,-0.23916 0.319478,0 0.503312,0.19811 0.183834,0.19633 0.187404,0.55864 H 68.31499 q -0.0018,-0.16242 -0.05354,-0.24987 -0.05176,-0.0875 -0.17134,-0.0875 -0.132075,0 -0.189188,0.0946 -0.05711,0.0928 -0.06068,0.36231 v 0.19633 q 0,0.23559 0.0232,0.33018 0.0232,0.0928 0.07675,0.13743 0.05354,0.0428 0.151708,0.0428 z m 1.513505,0.38373 h -0.506881 v -1.93115 h 0.506881 z m -0.530084,-2.43089 q 0,-0.1178 0.07496,-0.19276 0.07496,-0.075 0.199897,-0.075 0.124935,0 0.199897,0.075 0.07496,0.075 0.07496,0.19276 0,0.11601 -0.07496,0.19276 -0.07318,0.0767 -0.199897,0.0767 -0.126721,0 -0.201682,-0.0767 -0.07318,-0.0767 -0.07318,-0.19276 z m 1.383217,0.49974 0.01428,0.19098 q 0.17134,-0.22667 0.447984,-0.22667 0.497957,0 0.512236,0.69785 v 1.26899 h -0.506882 v -1.23151 q 0,-0.1642 -0.04997,-0.23738 -0.04819,-0.075 -0.17134,-0.075 -0.13743,0 -0.214176,0.141 v 1.40285 h -0.506882 v -1.93115 z m 1.276128,0.90668 q 0,-0.47476 0.17134,-0.70857 0.171341,-0.2338 0.48011,-0.2338 0.262365,0 0.405149,0.20703 l 0.01963,-0.17134 h 0.455123 v 1.93115 q 0,0.36945 -0.207036,0.564 -0.207036,0.19632 -0.594337,0.19632 -0.158847,0 -0.333756,-0.0643 -0.17491,-0.0625 -0.26058,-0.16063 l 0.169555,-0.34982 q 0.07139,0.075 0.185619,0.12136 0.114227,0.0482 0.21596,0.0482 0.169555,0 0.242732,-0.0821 0.07496,-0.0803 0.07675,-0.26058 v -0.16598 q -0.144568,0.18919 -0.376592,0.18919 -0.308769,0 -0.478325,-0.23917 -0.16777,-0.24094 -0.17134,-0.67822 z m 0.505097,0.12672 q 0,0.26772 0.06961,0.39087 0.06961,0.12136 0.221315,0.12136 0.155277,0 0.230238,-0.11244 v -0.92274 q -0.07853,-0.12315 -0.226669,-0.12315 -0.149923,0 -0.223099,0.12315 -0.07139,0.12315 -0.07139,0.39623 z m 3.153732,0.89775 q -0.02142,-0.0446 -0.04283,-0.14992 -0.135644,0.18562 -0.367668,0.18562 -0.242732,0 -0.403363,-0.16064 -0.158847,-0.16063 -0.158847,-0.41585 0,-0.30342 0.192758,-0.4694 0.194542,-0.16599 0.558641,-0.16956 h 0.153492 v -0.15528 q 0,-0.13029 -0.04462,-0.18383 -0.04462,-0.0535 -0.13029,-0.0535 -0.189188,0 -0.189188,0.22131 h -0.505097 q 0,-0.26772 0.199897,-0.44084 0.201682,-0.17491 0.508666,-0.17491 0.317694,0 0.490819,0.16598 0.17491,0.1642 0.17491,0.47119 v 0.90846 q 0.0036,0.24987 0.07139,0.39087 v 0.0303 z m -0.298061,-0.36053 q 0.08389,0 0.142784,-0.0339 0.0589,-0.0339 0.08746,-0.0803 v -0.40157 h -0.121366 q -0.128505,0 -0.203467,0.0821 -0.07318,0.0821 -0.07318,0.21953 0,0.21417 0.16777,0.21417 z m 2.0543,-1.08337 -0.167771,-0.0143 q -0.207036,0 -0.280213,0.18205 v 1.27613 H 76.19486 v -1.93115 h 0.47654 l 0.01428,0.20882 q 0.119581,-0.24451 0.330187,-0.24451 0.08567,0 0.139214,0.0232 z m 0.935232,-0.962 v 0.47475 h 0.258795 v 0.38016 h -0.258795 v 0.95844 q 0,0.11423 0.03034,0.15706 0.03213,0.0428 0.121367,0.0428 0.07318,0 0.119581,-0.0125 l -0.0036,0.39266 q -0.128505,0.0482 -0.278428,0.0482 -0.489034,0 -0.494388,-0.56043 v -1.02626 h -0.223099 v -0.38016 h 0.223099 v -0.47475 z m 1.315395,2.4416 q -0.389086,0 -0.606831,-0.23203 -0.217745,-0.23202 -0.217745,-0.66394 v -0.15349 q 0,-0.45691 0.199897,-0.705 0.199897,-0.24808 0.57292,-0.24808 0.364098,0 0.547932,0.2338 0.183833,0.23203 0.187403,0.68894 v 0.24808 h -1.004839 q 0.01071,0.21418 0.09459,0.31413 0.08389,0.0982 0.258795,0.0982 0.253441,0 0.422996,-0.17313 l 0.198113,0.3052 q -0.09281,0.12851 -0.269504,0.20883 -0.176695,0.0785 -0.383731,0.0785 z m -0.317694,-1.18511 h 0.505097 v -0.0464 q -0.0036,-0.17313 -0.05711,-0.26237 -0.05354,-0.0892 -0.185619,-0.0892 -0.132075,0 -0.192758,0.0946 -0.0589,0.0946 -0.06961,0.30341 z m 1.40285,1.14941 v -1.55099 h -0.233809 v -0.38016 h 0.233809 v -0.17312 q 0.0018,-0.31948 0.16777,-0.49618 0.167771,-0.17848 0.462262,-0.17848 0.08924,0 0.228454,0.0357 l -0.0036,0.40336 q -0.05176,-0.0161 -0.12315,-0.0161 -0.224885,0 -0.224885,0.26772 v 0.15706 h 0.301631 v 0.38016 h -0.301631 v 1.55099 z m 1.998968,0 q -0.02142,-0.0446 -0.04283,-0.14992 -0.135644,0.18562 -0.367668,0.18562 -0.242732,0 -0.403363,-0.16064 -0.158847,-0.16063 -0.158847,-0.41585 0,-0.30342 0.192758,-0.4694 0.194542,-0.16599 0.558641,-0.16956 h 0.153492 v -0.15528 q 0,-0.13029 -0.04462,-0.18383 -0.04462,-0.0535 -0.13029,-0.0535 -0.189188,0 -0.189188,0.22131 h -0.505097 q 0,-0.26772 0.199897,-0.44084 0.201682,-0.17491 0.508666,-0.17491 0.317694,0 0.490819,0.16598 0.17491,0.1642 0.17491,0.47119 v 0.90846 q 0.0036,0.24987 0.07139,0.39087 v 0.0303 z m -0.298061,-0.36053 q 0.08389,0 0.142784,-0.0339 0.0589,-0.0339 0.08745,-0.0803 v -0.40157 h -0.121366 q -0.128505,0 -0.203467,0.0821 -0.07318,0.0821 -0.07318,0.21953 0,0.21417 0.16777,0.21417 z m 1.799074,-0.0232 q 0.21953,0 0.2231,-0.28557 h 0.474755 q -0.0036,0.31591 -0.194543,0.51045 -0.190973,0.19455 -0.492603,0.19455 -0.373022,0 -0.56935,-0.23203 -0.196327,-0.23202 -0.199897,-0.68357 v -0.1535 q 0,-0.45512 0.192758,-0.69428 0.194543,-0.23916 0.572919,-0.23916 0.319479,0 0.503313,0.19811 0.183834,0.19633 0.187403,0.55864 h -0.474755 q -0.0018,-0.16242 -0.05354,-0.24987 -0.05176,-0.0875 -0.171341,-0.0875 -0.132074,0 -0.189188,0.0946 -0.05711,0.0928 -0.06068,0.36231 v 0.19633 q 0,0.23559 0.0232,0.33018 0.0232,0.0928 0.07675,0.13743 0.05354,0.0428 0.151707,0.0428 z m 1.570619,-2.02217 v 0.47475 h 0.258796 v 0.38016 h -0.258796 v 0.95844 q 0,0.11423 0.03034,0.15706 0.03213,0.0428 0.121366,0.0428 0.07318,0 0.119581,-0.0125 l -0.0036,0.39266 q -0.128506,0.0482 -0.278428,0.0482 -0.489034,0 -0.494389,-0.56043 v -1.02626 h -0.223099 v -0.38016 h 0.223099 v -0.47475 z m 1.390356,1.88831 q 0,-0.0643 -0.06247,-0.1178 -0.06068,-0.0553 -0.273074,-0.14813 -0.312339,-0.12673 -0.430136,-0.26237 -0.116011,-0.13564 -0.116011,-0.33733 0,-0.25344 0.182049,-0.41764 0.183834,-0.16598 0.485464,-0.16598 0.317693,0 0.508667,0.1642 0.190973,0.1642 0.190973,0.44084 h -0.505097 q 0,-0.23559 -0.196328,-0.23559 -0.08032,0 -0.132075,0.05 -0.05176,0.05 -0.05176,0.13922 0,0.0643 0.05711,0.11422 0.05711,0.0482 0.269504,0.13922 0.308769,0.11422 0.43549,0.25522 0.128505,0.13922 0.128505,0.36232 0,0.25879 -0.194543,0.41585 -0.194542,0.15707 -0.510451,0.15707 -0.212391,0 -0.374807,-0.0821 -0.162416,-0.0839 -0.255226,-0.23203 -0.09102,-0.14814 -0.09102,-0.31948 h 0.48011 q 0.0036,0.13208 0.06068,0.19812 0.0589,0.066 0.190973,0.066 0.203466,0 0.203466,-0.18383 z m 1.588468,-0.51045 q 0,-0.43906 0.207037,-0.68893 0.207036,-0.24987 0.572919,-0.24987 0.369452,0 0.576489,0.24987 0.207036,0.24987 0.207036,0.6925 v 0.12315 q 0,0.44084 -0.205252,0.68893 -0.205251,0.24809 -0.574704,0.24809 -0.371237,0 -0.578273,-0.24809 -0.205252,-0.24987 -0.205252,-0.6925 z m 0.506882,0.12672 q 0,0.51759 0.276643,0.51759 0.255226,0 0.274859,-0.43192 l 0.0018,-0.21239 q 0,-0.26415 -0.07318,-0.39087 -0.07318,-0.12851 -0.207036,-0.12851 -0.128505,0 -0.201682,0.12851 -0.07139,0.12672 -0.07139,0.39087 z m 1.977552,0.1874 0.244517,-1.21723 h 0.526514 l -0.530084,1.93115 h -0.481894 l -0.531869,-1.93115 h 0.528299 z m 1.788367,0.74962 q -0.389086,0 -0.606831,-0.23203 -0.217745,-0.23202 -0.217745,-0.66394 v -0.15349 q 0,-0.45691 0.199897,-0.705 0.199897,-0.24808 0.57292,-0.24808 0.364098,0 0.547932,0.2338 0.183834,0.23203 0.187403,0.68894 v 0.24808 H 92.48647 q 0.01071,0.21418 0.09459,0.31413 0.08388,0.0982 0.258795,0.0982 0.253441,0 0.422996,-0.17313 l 0.198113,0.3052 q -0.09281,0.12851 -0.269504,0.20883 -0.176695,0.0785 -0.383731,0.0785 z m -0.317694,-1.18511 h 0.505097 v -0.0464 q -0.0036,-0.17313 -0.05711,-0.26237 -0.05354,-0.0892 -0.185619,-0.0892 -0.132075,0 -0.192758,0.0946 -0.0589,0.0946 -0.06961,0.30341 z m 2.239915,-0.29449 -0.167771,-0.0143 q -0.207036,0 -0.280213,0.18205 v 1.27613 h -0.506882 v -1.93115 h 0.476541 l 0.01428,0.20882 q 0.119581,-0.24451 0.330187,-0.24451 0.08567,0 0.139214,0.0232 z m 1.688419,-0.962 v 0.47475 h 0.258795 v 0.38016 h -0.258795 v 0.95844 q 0,0.11423 0.03034,0.15706 0.03213,0.0428 0.121367,0.0428 0.07318,0 0.119581,-0.0125 l -0.0036,0.39266 q -0.128505,0.0482 -0.278428,0.0482 -0.489034,0 -0.494388,-0.56043 v -1.02626 h -0.223099 v -0.38016 h 0.223099 v -0.47475 z m 1.028041,0.64431 q 0.164201,-0.20525 0.403363,-0.20525 0.26415,0 0.401579,0.18561 0.137429,0.18562 0.139214,0.55329 v 1.22794 h -0.506882 v -1.22258 q 0,-0.16956 -0.05354,-0.24452 -0.05176,-0.0768 -0.169556,-0.0768 -0.137429,0 -0.214175,0.12672 v 1.41713 h -0.505097 v -2.74144 h 0.505097 z m 2.086424,1.79729 q -0.389085,0 -0.60683,-0.23203 -0.217745,-0.23202 -0.217745,-0.66394 v -0.15349 q 0,-0.45691 0.199897,-0.705 0.199897,-0.24808 0.572919,-0.24808 0.364098,0 0.547931,0.2338 0.18383,0.23203 0.1874,0.68894 v 0.24808 h -1.004835 q 0.01071,0.21418 0.09459,0.31413 0.08389,0.0982 0.258795,0.0982 0.253441,0 0.422997,-0.17313 l 0.198109,0.3052 q -0.0928,0.12851 -0.269501,0.20883 -0.176695,0.0785 -0.383731,0.0785 z m -0.317694,-1.18511 h 0.505097 v -0.0464 q -0.0036,-0.17313 -0.05711,-0.26237 -0.05354,-0.0892 -0.185619,-0.0892 -0.132075,0 -0.192758,0.0946 -0.0589,0.0946 -0.06961,0.30341 z m 3.037726,0.2463 h -0.87277 v -0.42121 h 0.87277 z m 0.85491,-0.62646 h 0.24452 q 0.13921,0 0.20347,-0.0964 0.066,-0.0982 0.066,-0.26058 0,-0.15528 -0.0678,-0.24095 -0.066,-0.0875 -0.17848,-0.0875 -0.1053,0 -0.17312,0.0821 -0.066,0.0821 -0.066,0.20704 h -0.5051 q 0,-0.20347 0.0928,-0.3641 0.0946,-0.16242 0.26237,-0.25344 0.16955,-0.091 0.3748,-0.091 0.35875,0 0.56221,0.19811 0.20347,0.19812 0.20347,0.54258 0,0.1767 -0.0928,0.3284 -0.091,0.14993 -0.24095,0.23024 0.18384,0.0785 0.27308,0.2356 0.091,0.15706 0.091,0.37123 0,0.34625 -0.22131,0.55508 -0.21953,0.20882 -0.57828,0.20882 -0.33375,0 -0.54257,-0.20526 -0.20704,-0.20703 -0.20704,-0.54257 h 0.5051 q 0,0.13921 0.0732,0.23381 0.0732,0.0946 0.18562,0.0946 0.13029,0 0.20525,-0.0964 0.0768,-0.0964 0.0768,-0.25701 0,-0.38373 -0.29806,-0.38552 h -0.24809 z m 2.18816,0.5051 q 0,-0.47476 0.16063,-0.70857 0.16064,-0.2338 0.46762,-0.2338 0.2231,0 0.37124,0.19275 v -0.96735 h 0.50866 v 2.74144 h -0.45869 l -0.0232,-0.19633 q -0.15528,0.23203 -0.39979,0.23203 -0.30342,0 -0.46405,-0.23203 -0.15885,-0.23202 -0.16242,-0.68179 z m 0.50688,0.12672 q 0,0.28557 0.0607,0.39979 0.0607,0.11244 0.20525,0.11244 0.14992,0 0.22667,-0.13386 v -0.88168 q -0.075,-0.14279 -0.22489,-0.14279 -0.13921,0 -0.20346,0.11244 -0.0643,0.11245 -0.0643,0.3998 z m 1.3975,0.89775 v -2.59866 h 0.80315 q 0.40694,0 0.61754,0.18205 0.21239,0.18026 0.21239,0.53008 0,0.19811 -0.0875,0.3409 -0.0875,0.14278 -0.23916,0.20882 0.17491,0.05 0.2695,0.20168 0.0946,0.14992 0.0946,0.37124 0,0.37837 -0.20882,0.57113 -0.20703,0.19276 -0.60147,0.19276 z m 0.52473,-1.12978 v 0.69429 h 0.33554 q 0.141,0 0.21417,-0.0875 0.0732,-0.0875 0.0732,-0.24809 0,-0.34982 -0.25344,-0.35875 z m 0,-0.38194 h 0.27307 q 0.30877,0 0.30877,-0.31948 0,-0.17669 -0.0714,-0.25344 -0.0714,-0.0768 -0.23203,-0.0768 h -0.27842 z m 1.68485,1.73482 h -0.36946 l 0.77996,-2.82176 h 0.36945 z m 2.88065,-1.28862 q 0,0.52294 -0.24808,0.81208 -0.2463,0.28914 -0.68536,0.28914 -0.43728,0 -0.68715,-0.28557 -0.24987,-0.28735 -0.25344,-0.80316 v -0.44441 q 0,-0.53544 0.24809,-0.83529 0.24808,-0.30163 0.68893,-0.30163 0.4337,0 0.68357,0.29628 0.24987,0.29449 0.25344,0.82814 z m -0.52651,-0.43549 q 0,-0.35161 -0.0999,-0.52295 -0.1,-0.17134 -0.31055,-0.17134 -0.20882,0 -0.30877,0.16599 -0.0999,0.1642 -0.10352,0.50153 v 0.46226 q 0,0.34089 0.10173,0.50331 0.10174,0.16063 0.31413,0.16063 0.20525,0 0.3052,-0.15706 0.0999,-0.15885 0.10173,-0.49082 z m 1.57597,1.11728 q 0.21953,0 0.2231,-0.28557 h 0.47476 q -0.004,0.31591 -0.19455,0.51045 -0.19097,0.19455 -0.4926,0.19455 -0.37302,0 -0.56935,-0.23203 -0.19633,-0.23202 -0.1999,-0.68357 v -0.1535 q 0,-0.45512 0.19276,-0.69428 0.19454,-0.23916 0.57292,-0.23916 0.31948,0 0.50331,0.19811 0.18384,0.19633 0.18741,0.55864 h -0.47476 q -0.002,-0.16242 -0.0535,-0.24987 -0.0518,-0.0875 -0.17134,-0.0875 -0.13208,0 -0.18919,0.0946 -0.0571,0.0928 -0.0607,0.36231 v 0.19633 q 0,0.23559 0.0232,0.33018 0.0232,0.0928 0.0767,0.13743 0.0536,0.0428 0.15171,0.0428 z m 1.57062,-2.02217 v 0.47475 h 0.2588 v 0.38016 h -0.2588 v 0.95844 q 0,0.11423 0.0303,0.15706 0.0321,0.0428 0.12137,0.0428 0.0732,0 0.11958,-0.0125 l -0.004,0.39266 q -0.1285,0.0482 -0.27843,0.0482 -0.48903,0 -0.49438,-0.56043 v -1.02626 h -0.2231 v -0.38016 h 0.2231 v -0.47475 z m 1.45282,2.4059 q -0.0214,-0.0446 -0.0428,-0.14992 -0.13564,0.18562 -0.36767,0.18562 -0.24273,0 -0.40336,-0.16064 -0.15885,-0.16063 -0.15885,-0.41585 0,-0.30342 0.19276,-0.4694 0.19454,-0.16599 0.55864,-0.16956 h 0.15349 v -0.15528 q 0,-0.13029 -0.0446,-0.18383 -0.0446,-0.0535 -0.13029,-0.0535 -0.18919,0 -0.18919,0.22131 h -0.50509 q 0,-0.26772 0.19989,-0.44084 0.20169,-0.17491 0.50867,-0.17491 0.31769,0 0.49082,0.16598 0.17491,0.1642 0.17491,0.47119 v 0.90846 q 0.004,0.24987 0.0714,0.39087 v 0.0303 z m -0.29806,-0.36053 q 0.0839,0 0.14279,-0.0339 0.0589,-0.0339 0.0875,-0.0803 v -0.40157 h -0.12136 q -0.12851,0 -0.20347,0.0821 -0.0732,0.0821 -0.0732,0.21953 0,0.21417 0.16777,0.21417 z m 1.70805,-0.35339 0.24452,-1.21723 h 0.52652 l -0.53009,1.93115 h -0.48189 l -0.53187,-1.93115 h 0.5283 z m 1.78837,0.74962 q -0.38909,0 -0.60683,-0.23203 -0.21775,-0.23202 -0.21775,-0.66394 v -0.15349 q 0,-0.45691 0.1999,-0.705 0.1999,-0.24808 0.57292,-0.24808 0.3641,0 0.54793,0.2338 0.18383,0.23203 0.1874,0.68894 v 0.24808 h -1.00484 q 0.0107,0.21418 0.0946,0.31413 0.0839,0.0982 0.25879,0.0982 0.25344,0 0.423,-0.17313 l 0.19811,0.3052 q -0.0928,0.12851 -0.2695,0.20883 -0.1767,0.0785 -0.38373,0.0785 z m -0.3177,-1.18511 h 0.5051 v -0.0464 q -0.004,-0.17313 -0.0571,-0.26237 -0.0536,-0.0892 -0.18562,-0.0892 -0.13208,0 -0.19276,0.0946 -0.0589,0.0946 -0.0696,0.30341 z m 2.65935,1.14941 h -0.50688 v -2.74144 h 0.50688 z m 0.92095,0 h -0.50688 v -1.93115 h 0.50688 z m -0.53008,-2.43089 q 0,-0.1178 0.075,-0.19276 0.075,-0.075 0.1999,-0.075 0.12493,0 0.19989,0.075 0.075,0.075 0.075,0.19276 0,0.11601 -0.075,0.19276 -0.0732,0.0767 -0.19989,0.0767 -0.12672,0 -0.20168,-0.0767 -0.0732,-0.0767 -0.0732,-0.19276 z m 1.38321,0.49974 0.0143,0.19098 q 0.17134,-0.22667 0.44798,-0.22667 0.49796,0 0.51224,0.69785 v 1.26899 h -0.50688 v -1.23151 q 0,-0.1642 -0.05,-0.23738 -0.0482,-0.075 -0.17134,-0.075 -0.13742,0 -0.21417,0.141 v 1.40285 h -0.50688 v -1.93115 z m 2.11677,1.96685 q -0.38909,0 -0.60683,-0.23203 -0.21775,-0.23202 -0.21775,-0.66394 v -0.15349 q 0,-0.45691 0.1999,-0.705 0.1999,-0.24808 0.57292,-0.24808 0.3641,0 0.54793,0.2338 0.18384,0.23203 0.18741,0.68894 v 0.24808 h -1.00484 q 0.0107,0.21418 0.0946,0.31413 0.0839,0.0982 0.2588,0.0982 0.25344,0 0.42299,-0.17313 l 0.19811,0.3052 q -0.0928,0.12851 -0.2695,0.20883 -0.1767,0.0785 -0.38373,0.0785 z m -0.31769,-1.18511 h 0.50509 v -0.0464 q -0.004,-0.17313 -0.0571,-0.26237 -0.0536,-0.0892 -0.18562,-0.0892 -0.13207,0 -0.19276,0.0946 -0.0589,0.0946 -0.0696,0.30341 z"
       id="text358"
       transform="rotate(-0.51324647)"
       aria-label="Introducing artefacts over the -3 dB/Octave line " />
    <path
       d="m 89.605446,132.52877 0.129541,-0.81064 h 0.361914 l -0.299146,1.44499 h -0.313837 l -0.204327,-0.83601 -0.204328,0.83601 h -0.315171 l -0.299147,-1.44499 h 0.363249 l 0.128206,0.81197 0.192308,-0.81197 h 0.26843 z m 1.730774,0 0.129541,-0.81064 h 0.361913 l -0.299146,1.44499 h -0.313836 l -0.204327,-0.83601 -0.204328,0.83601 h -0.315172 l -0.299146,-1.44499 h 0.363249 l 0.128206,0.81197 0.192308,-0.81197 h 0.26843 z m 1.730774,0 0.129541,-0.81064 h 0.361913 l -0.299146,1.44499 h -0.313836 l -0.204328,-0.83601 -0.204327,0.83601 h -0.315172 l -0.299146,-1.44499 h 0.363249 l 0.128205,0.81197 0.192309,-0.81197 h 0.26843 z m 0.543538,0.44204 q 0,-0.0908 0.0601,-0.14957 0.06143,-0.0588 0.158922,-0.0588 0.09482,0 0.157586,0.0588 0.06277,0.0574 0.06277,0.14957 0,0.0935 -0.0641,0.15091 -0.06277,0.0561 -0.15625,0.0561 -0.09482,0 -0.157586,-0.0574 -0.06143,-0.0574 -0.06143,-0.14957 z m 1.451659,0.19231 q -0.01602,-0.0334 -0.03205,-0.11218 -0.101496,0.13889 -0.275108,0.13889 -0.181624,0 -0.301817,-0.1202 -0.118857,-0.12019 -0.118857,-0.31116 0,-0.22703 0.144231,-0.35123 0.145567,-0.1242 0.418004,-0.12687 h 0.11485 v -0.11619 q 0,-0.0975 -0.03339,-0.13755 -0.03339,-0.0401 -0.09749,-0.0401 -0.14156,0 -0.14156,0.1656 h -0.377939 q 0,-0.20032 0.149573,-0.32986 0.150908,-0.13088 0.38061,-0.13088 0.237714,0 0.367255,0.1242 0.130876,0.12287 0.130876,0.35257 v 0.67975 q 0.0027,0.18697 0.05342,0.29247 v 0.0227 z m -0.223024,-0.26977 q 0.06277,0 0.106838,-0.0254 0.04407,-0.0254 0.06544,-0.0601 v -0.30048 h -0.09081 q -0.09615,0 -0.152244,0.0614 -0.05475,0.0614 -0.05475,0.16426 0,0.16026 0.125534,0.16026 z m 1.537131,-0.81063 -0.125535,-0.0107 q -0.154915,0 -0.209669,0.13622 v 0.95487 h -0.379275 v -1.44499 h 0.356572 l 0.01068,0.15625 q 0.08948,-0.18296 0.247062,-0.18296 0.0641,0 0.104167,0.0174 z m 0.699788,-0.71982 v 0.35523 h 0.193644 v 0.28446 h -0.193644 v 0.71715 q 0,0.0855 0.0227,0.11752 0.02404,0.0321 0.09081,0.0321 0.05476,0 0.08948,-0.009 l -0.0027,0.29381 q -0.09615,0.0361 -0.208334,0.0361 -0.36592,0 -0.369926,-0.41934 v -0.7679 h -0.166934 v -0.28446 h 0.166934 v -0.35523 z m 0.984244,1.82693 q -0.291134,0 -0.454061,-0.17362 -0.162928,-0.17361 -0.162928,-0.49679 v -0.11485 q 0,-0.34188 0.149573,-0.52751 0.149573,-0.18564 0.428687,-0.18564 0.272437,0 0.40999,0.17495 0.137554,0.17361 0.140225,0.51549 v 0.18564 h -0.751872 q 0.008,0.16025 0.07078,0.23504 0.06277,0.0735 0.193643,0.0735 0.189637,0 0.316507,-0.12954 l 0.148238,0.22836 q -0.06945,0.0962 -0.201657,0.15626 -0.132211,0.0588 -0.287126,0.0588 z m -0.237715,-0.88676 h 0.377939 v -0.0347 q -0.0027,-0.12954 -0.04273,-0.19632 -0.04006,-0.0668 -0.138889,-0.0668 -0.09882,0 -0.144231,0.0708 -0.04407,0.0708 -0.05208,0.22703 z m 1.049683,0.86005 v -1.16053 h -0.174947 v -0.28446 h 0.174947 v -0.12954 q 0.0013,-0.23905 0.125534,-0.37126 0.125535,-0.13355 0.345888,-0.13355 0.06677,0 0.170941,0.0267 l -0.0027,0.30182 q -0.03873,-0.012 -0.09215,-0.012 -0.16827,0 -0.16827,0.20032 v 0.11752 h 0.225695 v 0.28446 h -0.225695 v 1.16053 z m 1.495732,0 q -0.016,-0.0334 -0.032,-0.11218 -0.1015,0.13889 -0.27511,0.13889 -0.181625,0 -0.301817,-0.1202 -0.118858,-0.12019 -0.118858,-0.31116 0,-0.22703 0.144232,-0.35123 0.145566,-0.1242 0.418003,-0.12687 h 0.11485 v -0.11619 q 0,-0.0975 -0.0334,-0.13755 -0.0334,-0.0401 -0.0975,-0.0401 -0.14156,0 -0.14156,0.1656 h -0.377935 q 0,-0.20032 0.149573,-0.32986 0.150908,-0.13088 0.380612,-0.13088 0.23771,0 0.36725,0.1242 0.13088,0.12287 0.13088,0.35257 v 0.67975 q 0.003,0.18697 0.0534,0.29247 v 0.0227 z m -0.22303,-0.26977 q 0.0628,0 0.10684,-0.0254 0.0441,-0.0254 0.0654,-0.0601 v -0.30048 h -0.0908 q -0.0962,0 -0.15225,0.0614 -0.0547,0.0614 -0.0547,0.16426 0,0.16026 0.12553,0.16026 z m 1.34616,-0.0174 q 0.16426,0 0.16694,-0.21368 h 0.35523 q -0.003,0.23638 -0.14556,0.38195 -0.1429,0.14557 -0.3686,0.14557 -0.27911,0 -0.42601,-0.17362 -0.1469,-0.17361 -0.14957,-0.51148 v -0.11485 q 0,-0.34055 0.14423,-0.5195 0.14556,-0.17896 0.42868,-0.17896 0.23905,0 0.37661,0.14824 0.13755,0.1469 0.14022,0.41801 h -0.35523 q -0.001,-0.12153 -0.0401,-0.18697 -0.0387,-0.0654 -0.1282,-0.0654 -0.0988,0 -0.14156,0.0708 -0.0427,0.0694 -0.0454,0.2711 v 0.1469 q 0,0.17629 0.0174,0.24707 0.0174,0.0694 0.0574,0.10283 0.0401,0.032 0.11351,0.032 z m 1.17522,-1.51309 v 0.35523 h 0.19364 v 0.28446 h -0.19364 v 0.71715 q 0,0.0855 0.0227,0.11752 0.024,0.0321 0.0908,0.0321 0.0548,0 0.0895,-0.009 l -0.003,0.29381 q -0.0962,0.0361 -0.20833,0.0361 -0.36592,0 -0.36993,-0.41934 v -0.7679 h -0.16694 v -0.28446 h 0.16694 v -0.35523 z m 1.0804,1.12447 h -0.65305 v -0.31517 h 0.65305 z m 1.00027,0.67575 q -0.016,-0.0334 -0.0321,-0.11218 -0.10149,0.13889 -0.2751,0.13889 -0.18163,0 -0.30182,-0.1202 -0.11886,-0.12019 -0.11886,-0.31116 0,-0.22703 0.14423,-0.35123 0.14557,-0.1242 0.41801,-0.12687 h 0.11485 v -0.11619 q 0,-0.0975 -0.0334,-0.13755 -0.0334,-0.0401 -0.0975,-0.0401 -0.14156,0 -0.14156,0.1656 h -0.37794 q 0,-0.20032 0.14958,-0.32986 0.1509,-0.13088 0.38061,-0.13088 0.23771,0 0.36725,0.1242 0.13088,0.12287 0.13088,0.35257 v 0.67975 q 0.003,0.18697 0.0534,0.29247 v 0.0227 z m -0.22303,-0.26977 q 0.0628,0 0.10684,-0.0254 0.0441,-0.0254 0.0654,-0.0601 v -0.30048 h -0.0908 q -0.0962,0 -0.15225,0.0614 -0.0547,0.0614 -0.0547,0.16426 0,0.16026 0.12553,0.16026 z m 1.53446,0.13755 q -0.11752,0.15893 -0.31517,0.15893 -0.19899,0 -0.30182,-0.13622 -0.10283,-0.13756 -0.10283,-0.39931 v -0.93617 h 0.37794 v 0.94552 q 0.003,0.211 0.14022,0.211 0.12955,0 0.18697,-0.11218 v -1.04434 h 0.38061 v 1.44499 h -0.35523 z m 0.58494,-0.63435 q 0,-0.35523 0.12019,-0.53018 0.12019,-0.17495 0.3499,-0.17495 0.16693,0 0.27777,0.14424 v -0.72383 h 0.38061 v 2.05129 h -0.34321 l -0.0174,-0.14691 q -0.11619,0.17362 -0.29915,0.17362 -0.22703,0 -0.34722,-0.17362 -0.11886,-0.17361 -0.12153,-0.51015 z m 0.37927,0.0948 q 0,0.21368 0.0454,0.29915 0.0454,0.0841 0.15358,0.0841 0.11218,0 0.1696,-0.10016 v -0.65972 q -0.0561,-0.10684 -0.16827,-0.10684 -0.10416,0 -0.15224,0.0841 -0.0481,0.0841 -0.0481,0.29914 z m 1.42362,0.67175 h -0.37928 v -1.44499 h 0.37928 z m -0.39664,-1.81892 q 0,-0.0881 0.0561,-0.14423 0.0561,-0.0561 0.14957,-0.0561 0.0935,0 0.14958,0.0561 0.0561,0.0561 0.0561,0.14423 0,0.0868 -0.0561,0.14423 -0.0548,0.0574 -0.14958,0.0574 -0.0948,0 -0.1509,-0.0574 -0.0548,-0.0574 -0.0548,-0.14423 z m 0.64504,1.04968 q 0,-0.32852 0.15491,-0.51549 0.15492,-0.18697 0.42869,-0.18697 0.27644,0 0.43136,0.18697 0.15491,0.18697 0.15491,0.51816 v 0.0922 q 0,0.32986 -0.15358,0.5155 -0.15358,0.18563 -0.43002,0.18563 -0.27778,0 -0.43269,-0.18563 -0.15358,-0.18697 -0.15358,-0.51817 z m 0.37927,0.0948 q 0,0.38729 0.207,0.38729 0.19097,0 0.20566,-0.32318 l 0.001,-0.15893 q 0,-0.19765 -0.0548,-0.29247 -0.0548,-0.0961 -0.15491,-0.0961 -0.0962,0 -0.15091,0.0961 -0.0534,0.0948 -0.0534,0.29247 z m 1.7054,-0.001 h -0.65305 v -0.31517 h 0.65305 z m 0.26309,-0.0908 q 0,-0.35523 0.12019,-0.53018 0.12019,-0.17495 0.34989,-0.17495 0.16694,0 0.27778,0.14424 v -0.72383 h 0.38061 v 2.05129 h -0.34321 l -0.0174,-0.14691 q -0.11619,0.17362 -0.29915,0.17362 -0.22703,0 -0.34722,-0.17362 -0.11886,-0.17361 -0.12153,-0.51015 z m 0.37927,0.0948 q 0,0.21368 0.0454,0.29915 0.0454,0.0841 0.15358,0.0841 0.11218,0 0.1696,-0.10016 v -0.65972 q -0.0561,-0.10684 -0.16827,-0.10684 -0.10416,0 -0.15224,0.0841 -0.0481,0.0841 -0.0481,0.29914 z m 1.61059,0.69846 q -0.29114,0 -0.45407,-0.17362 -0.16292,-0.17361 -0.16292,-0.49679 v -0.11485 q 0,-0.34188 0.14957,-0.52751 0.14957,-0.18564 0.42869,-0.18564 0.27243,0 0.40999,0.17495 0.13755,0.17361 0.14022,0.51549 v 0.18564 h -0.75187 q 0.008,0.16025 0.0708,0.23504 0.0628,0.0735 0.19364,0.0735 0.18964,0 0.31651,-0.12954 l 0.14824,0.22836 q -0.0694,0.0962 -0.20166,0.15626 -0.13221,0.0588 -0.28712,0.0588 z m -0.23772,-0.88676 h 0.37794 v -0.0347 q -0.003,-0.12954 -0.0427,-0.19632 -0.0401,-0.0668 -0.13888,-0.0668 -0.0988,0 -0.14424,0.0708 -0.0441,0.0708 -0.0521,0.22703 z m 1.60257,0.47276 q 0,-0.0481 -0.0467,-0.0881 -0.0454,-0.0414 -0.20433,-0.11085 -0.23371,-0.0948 -0.32185,-0.19631 -0.0868,-0.1015 -0.0868,-0.25241 0,-0.18963 0.13622,-0.3125 0.13756,-0.1242 0.36325,-0.1242 0.23772,0 0.38061,0.12287 0.1429,0.12286 0.1429,0.32986 h -0.37794 q 0,-0.17628 -0.1469,-0.17628 -0.0601,0 -0.0988,0.0374 -0.0387,0.0374 -0.0387,0.10417 0,0.0481 0.0427,0.0855 0.0427,0.0361 0.20165,0.10417 0.23104,0.0855 0.32586,0.19097 0.0962,0.10416 0.0962,0.2711 0,0.19364 -0.14556,0.31116 -0.14557,0.11753 -0.38195,0.11753 -0.15892,0 -0.28045,-0.0614 -0.12153,-0.0628 -0.19097,-0.17361 -0.0681,-0.11084 -0.0681,-0.23905 h 0.35924 q 0.003,0.0988 0.0454,0.14824 0.0441,0.0494 0.14289,0.0494 0.15225,0 0.15225,-0.13755 z m 0.99893,0.38729 h -0.37927 v -1.44499 h 0.37927 z m -0.39663,-1.81892 q 0,-0.0881 0.0561,-0.14423 0.0561,-0.0561 0.14957,-0.0561 0.0935,0 0.14957,0.0561 0.0561,0.0561 0.0561,0.14423 0,0.0868 -0.0561,0.14423 -0.0547,0.0574 -0.14957,0.0574 -0.0948,0 -0.15091,-0.0574 -0.0547,-0.0574 -0.0547,-0.14423 z m 0.6437,1.05235 q 0,-0.35523 0.1282,-0.53018 0.12821,-0.17495 0.35924,-0.17495 0.19632,0 0.30316,0.15492 l 0.0147,-0.12821 h 0.34054 v 1.44499 q 0,0.27644 -0.15491,0.42201 -0.15492,0.1469 -0.44472,0.1469 -0.11885,0 -0.24973,-0.0481 -0.13088,-0.0467 -0.19498,-0.12019 l 0.12687,-0.26175 q 0.0534,0.0561 0.13889,0.0908 0.0855,0.0361 0.16159,0.0361 0.12687,0 0.18163,-0.0614 0.0561,-0.0601 0.0574,-0.19498 v -0.12419 q -0.10817,0.14156 -0.28178,0.14156 -0.23104,0 -0.35791,-0.17896 -0.12553,-0.18029 -0.1282,-0.50748 z m 0.37793,0.0948 q 0,0.20032 0.0521,0.29247 0.0521,0.0908 0.1656,0.0908 0.11618,0 0.17227,-0.0841 v -0.69044 q -0.0588,-0.0922 -0.1696,-0.0922 -0.11218,0 -0.16694,0.0922 -0.0534,0.0922 -0.0534,0.29647 z m 1.3889,-0.77324 0.0107,0.1429 q 0.12821,-0.16961 0.3352,-0.16961 0.3726,0 0.38329,0.52217 v 0.94953 h -0.37928 v -0.92148 q 0,-0.12286 -0.0374,-0.17762 -0.0361,-0.0561 -0.12821,-0.0561 -0.10283,0 -0.16025,0.1055 v 1.04969 h -0.37928 v -1.44499 z m 1.03098,1.25268 q 0,-0.0908 0.0601,-0.14957 0.0614,-0.0588 0.15892,-0.0588 0.0948,0 0.15759,0.0588 0.0628,0.0574 0.0628,0.14957 0,0.0935 -0.0641,0.15091 -0.0628,0.0561 -0.15625,0.0561 -0.0948,0 -0.15759,-0.0574 -0.0614,-0.0574 -0.0614,-0.14957 z m 1.2874,-0.0948 q 0.16426,0 0.16693,-0.21368 h 0.35524 q -0.003,0.23638 -0.14557,0.38195 -0.14289,0.14557 -0.36859,0.14557 -0.27911,0 -0.42601,-0.17362 -0.14691,-0.17361 -0.14958,-0.51148 v -0.11485 q 0,-0.34055 0.14423,-0.5195 0.14557,-0.17896 0.42869,-0.17896 0.23905,0 0.3766,0.14824 0.13756,0.1469 0.14023,0.41801 h -0.35524 q -0.001,-0.12153 -0.0401,-0.18697 -0.0387,-0.0654 -0.12821,-0.0654 -0.0988,0 -0.14156,0.0708 -0.0427,0.0694 -0.0454,0.2711 v 0.1469 q 0,0.17629 0.0174,0.24707 0.0174,0.0694 0.0574,0.10283 0.0401,0.032 0.11352,0.032 z m 0.69177,-0.48211 q 0,-0.32852 0.15492,-0.51549 0.15491,-0.18697 0.42869,-0.18697 0.27644,0 0.43135,0.18697 0.15492,0.18697 0.15492,0.51816 v 0.0922 q 0,0.32986 -0.15358,0.5155 -0.15358,0.18563 -0.43002,0.18563 -0.27778,0 -0.4327,-0.18563 -0.15358,-0.18697 -0.15358,-0.51817 z m 0.37928,0.0948 q 0,0.38729 0.207,0.38729 0.19097,0 0.20566,-0.32318 l 0.001,-0.15893 q 0,-0.19765 -0.0548,-0.29247 -0.0547,-0.0961 -0.15491,-0.0961 -0.0962,0 -0.15091,0.0961 -0.0534,0.0948 -0.0534,0.29247 z m 1.38088,-0.77057 0.0107,0.13355 q 0.12687,-0.16026 0.3352,-0.16026 0.21635,0 0.30583,0.19498 0.1242,-0.19498 0.3539,-0.19498 0.37927,0 0.38862,0.52485 v 0.94685 h -0.37794 v -0.92282 q 0,-0.12553 -0.0347,-0.17895 -0.0347,-0.0534 -0.11752,-0.0534 -0.1055,0 -0.15759,0.12954 l 0.003,0.0454 v 0.98024 h -0.37794 v -0.92014 q 0,-0.1242 -0.0334,-0.17896 -0.0334,-0.0561 -0.11886,-0.0561 -0.0975,0 -0.15491,0.1055 v 1.04969 h -0.37794 v -1.44499 z"
       id="text361"
       style="font-weight:bold;font-size:2.73505px;font-family:'Roboto Condensed';-inkscape-font-specification:'Roboto Condensed, Bold';text-align:center;text-anchor:middle;fill:#f3aaf4;stroke-width:0.181"
       aria-label="www.artefact-audio-design.com" />
    <path
       d="m 37.733933,132.47935 v 0.68377 h -0.392629 v -1.94445 h 0.662395 q 0.288462,0 0.459403,0.17895 0.172276,0.17895 0.172276,0.46475 0,0.28579 -0.169605,0.45139 -0.169605,0.16559 -0.470087,0.16559 z m 0,-0.32719 h 0.269766 q 0.11218,0 0.173612,-0.0735 0.06143,-0.0735 0.06143,-0.21367 0,-0.14557 -0.06277,-0.23104 -0.06277,-0.0868 -0.16827,-0.0881 h -0.273772 z m 1.541137,1.01096 h -0.379275 v -1.44499 h 0.379275 z m -0.396636,-1.81892 q 0,-0.0881 0.05609,-0.14423 0.05609,-0.0561 0.149573,-0.0561 0.09348,0 0.149573,0.0561 0.05609,0.0561 0.05609,0.14423 0,0.0868 -0.05609,0.14423 -0.05475,0.0574 -0.149573,0.0574 -0.09482,0 -0.150908,-0.0574 -0.05476,-0.0574 -0.05476,-0.14423 z m 1.034992,0.37393 0.01068,0.1429 q 0.128206,-0.16961 0.335204,-0.16961 0.372597,0 0.383281,0.52217 v 0.94953 H 40.26332 v -0.92148 q 0,-0.12286 -0.03739,-0.17762 -0.03606,-0.0561 -0.128205,-0.0561 -0.102832,0 -0.160257,0.1055 v 1.04969 H 39.55819 v -1.44499 z m 1.479705,0.88809 -0.101496,0.11352 v 0.44338 h -0.377939 v -2.05129 h 0.377939 v 1.10844 l 0.04674,-0.0694 0.261752,-0.4327 h 0.450055 l -0.419339,0.59563 0.459403,0.84936 h -0.432693 z m 2.741727,-0.16559 0.184296,-1.22196 h 0.388622 l -0.345887,1.94445 h -0.393965 l -0.22703,-1.14584 -0.22436,1.14584 h -0.3953 l -0.347223,-1.94445 h 0.391293 l 0.18296,1.22062 0.228366,-1.22062 h 0.329862 z m 1.408925,0.72249 q -0.01602,-0.0334 -0.03205,-0.11218 -0.101496,0.13889 -0.275108,0.13889 -0.181624,0 -0.301817,-0.1202 -0.118857,-0.12019 -0.118857,-0.31116 0,-0.22703 0.144231,-0.35123 0.145567,-0.1242 0.418004,-0.12687 h 0.11485 v -0.11619 q 0,-0.0975 -0.03339,-0.13755 -0.03339,-0.0401 -0.09749,-0.0401 -0.14156,0 -0.14156,0.1656 H 44.84266 q 0,-0.20032 0.149573,-0.32986 0.150908,-0.13088 0.38061,-0.13088 0.237714,0 0.367255,0.1242 0.130876,0.12287 0.130876,0.35257 v 0.67975 q 0.0027,0.18697 0.05342,0.29247 v 0.0227 z m -0.223024,-0.26977 q 0.06277,0 0.106838,-0.0254 0.04407,-0.0254 0.06544,-0.0601 v -0.30048 h -0.09081 q -0.09615,0 -0.152244,0.0614 -0.05475,0.0614 -0.05475,0.16426 0,0.16026 0.125534,0.16026 z m 1.220623,0.26977 h -0.379275 v -2.05129 h 0.379275 z m 0.689104,0 h -0.379275 v -2.05129 h 0.379275 z m 2.048617,-0.67709 q 0,0.34055 -0.117522,0.52217 -0.116186,0.18163 -0.347223,0.18163 -0.176282,0 -0.28312,-0.1429 v 0.67174 h -0.377939 v -2.00054 h 0.349894 l 0.01335,0.13222 q 0.108173,-0.15893 0.295139,-0.15893 0.231037,0 0.347223,0.16827 0.117522,0.16827 0.120193,0.5155 z m -0.376604,-0.0948 q 0,-0.20967 -0.04674,-0.29647 -0.04541,-0.0868 -0.154915,-0.0868 -0.116186,0 -0.169605,0.0975 v 0.67709 q 0.05075,0.0935 0.172276,0.0935 0.11218,0 0.154915,-0.0948 0.04407,-0.0948 0.04407,-0.29514 z m 1.001605,0.77191 H 49.52483 v -2.05129 h 0.379274 z m 1.002941,-0.13222 q -0.117522,0.15893 -0.315172,0.15893 -0.198986,0 -0.301817,-0.13622 -0.102832,-0.13756 -0.102832,-0.39931 v -0.93617 h 0.377939 v 0.94552 q 0.0027,0.211 0.140225,0.211 0.129541,0 0.186966,-0.11218 v -1.04434 h 0.38061 v 1.44499 h -0.355236 z m 0.59028,-0.63435 q 0,-0.35523 0.128205,-0.53018 0.128206,-0.17495 0.359242,-0.17495 0.196315,0 0.303153,0.15492 l 0.01469,-0.12821 h 0.340546 v 1.44499 q 0,0.27644 -0.154915,0.42201 -0.154915,0.1469 -0.444713,0.1469 -0.118857,0 -0.249733,-0.0481 -0.130877,-0.0467 -0.194979,-0.12019 l 0.12687,-0.26175 q 0.05342,0.0561 0.138889,0.0908 0.08547,0.0361 0.161592,0.0361 0.12687,0 0.181625,-0.0614 0.05609,-0.0601 0.05743,-0.19498 v -0.12419 q -0.108173,0.14156 -0.281785,0.14156 -0.231037,0 -0.357907,-0.17896 -0.125534,-0.18029 -0.128205,-0.50748 z m 0.377939,0.0948 q 0,0.20032 0.05208,0.29247 0.05208,0.0908 0.165599,0.0908 0.116186,0 0.172276,-0.0841 v -0.69044 q -0.05876,-0.0922 -0.169605,-0.0922 -0.11218,0 -0.166934,0.0922 -0.05342,0.0922 -0.05342,0.29647 z m 1.43964,0.67175 H 52.93563 v -1.44499 h 0.379274 z m -0.396635,-1.81892 q 0,-0.0881 0.05609,-0.14423 0.05609,-0.0561 0.149574,-0.0561 0.09348,0 0.149573,0.0561 0.05609,0.0561 0.05609,0.14423 0,0.0868 -0.05609,0.14423 -0.05476,0.0574 -0.149573,0.0574 -0.09482,0 -0.150909,-0.0574 -0.05475,-0.0574 -0.05475,-0.14423 z m 1.034991,0.37393 0.01068,0.1429 q 0.128206,-0.16961 0.335204,-0.16961 0.372597,0 0.383281,0.52217 v 0.94953 h -0.379275 v -0.92148 q 0,-0.12286 -0.03739,-0.17762 -0.03606,-0.0561 -0.128205,-0.0561 -0.102832,0 -0.160257,0.1055 v 1.04969 h -0.379275 v -1.44499 z"
       id="text362"
       style="font-weight:bold;font-size:2.73505px;font-family:'Roboto Condensed';-inkscape-font-specification:'Roboto Condensed, Bold';text-align:center;text-anchor:middle;fill:#f3aaf4;stroke-width:0.181"
       aria-label="Pink Wall plugin" />
    <path
       d="m 143.88978,132.8613 q 0.16426,0 0.16693,-0.21368 h 0.35524 q -0.003,0.23638 -0.14557,0.38195 -0.14289,0.14556 -0.36859,0.14556 -0.27911,0 -0.42601,-0.17361 -0.14691,-0.17361 -0.14958,-0.51149 v -0.11485 q 0,-0.34054 0.14423,-0.5195 0.14557,-0.17895 0.42869,-0.17895 0.23905,0 0.3766,0.14824 0.13756,0.1469 0.14023,0.418 h -0.35524 q -0.001,-0.12153 -0.0401,-0.18697 -0.0387,-0.0654 -0.12821,-0.0654 -0.0988,0 -0.14156,0.0708 -0.0427,0.0694 -0.0454,0.2711 v 0.1469 q 0,0.17628 0.0174,0.24706 0.0174,0.0695 0.0574,0.10283 0.0401,0.0321 0.11352,0.0321 z m 1.44899,-0.79328 -0.12554,-0.0107 q -0.15491,0 -0.20967,0.13622 v 0.95486 h -0.37927 v -1.44498 h 0.35657 l 0.0107,0.15625 q 0.0895,-0.18296 0.24707,-0.18296 0.0641,0 0.10416,0.0174 z m 0.77724,1.10711 q -0.29113,0 -0.45406,-0.17361 -0.16293,-0.17361 -0.16293,-0.4968 v -0.11485 q 0,-0.34188 0.14958,-0.52751 0.14957,-0.18563 0.42868,-0.18563 0.27244,0 0.40999,0.17495 0.13756,0.17361 0.14023,0.51549 v 0.18563 h -0.75187 q 0.008,0.16026 0.0708,0.23504 0.0628,0.0735 0.19364,0.0735 0.18964,0 0.31651,-0.12955 l 0.14824,0.22837 q -0.0695,0.0962 -0.20166,0.15625 -0.13221,0.0588 -0.28713,0.0588 z m -0.23771,-0.88675 h 0.37794 v -0.0347 q -0.003,-0.12954 -0.0427,-0.19631 -0.0401,-0.0668 -0.13889,-0.0668 -0.0988,0 -0.14423,0.0708 -0.0441,0.0708 -0.0521,0.22703 z m 1.64931,0.86004 q -0.016,-0.0334 -0.032,-0.11218 -0.1015,0.13889 -0.27511,0.13889 -0.18162,0 -0.30182,-0.12019 -0.11885,-0.12019 -0.11885,-0.31117 0,-0.22703 0.14423,-0.35123 0.14556,-0.12419 0.418,-0.12687 h 0.11485 v -0.11618 q 0,-0.0975 -0.0334,-0.13756 -0.0334,-0.0401 -0.0975,-0.0401 -0.14156,0 -0.14156,0.1656 h -0.37793 q 0,-0.20032 0.14957,-0.32986 0.15091,-0.13088 0.38061,-0.13088 0.23771,0 0.36725,0.1242 0.13088,0.12286 0.13088,0.35256 v 0.67976 q 0.003,0.18697 0.0534,0.29247 v 0.0227 z m -0.22303,-0.26976 q 0.0628,0 0.10684,-0.0254 0.0441,-0.0254 0.0654,-0.0601 v -0.30049 h -0.0908 q -0.0962,0 -0.15225,0.0614 -0.0548,0.0614 -0.0548,0.16426 0,0.16026 0.12553,0.16026 z m 1.26336,-1.53046 v 0.35524 h 0.19365 v 0.28446 h -0.19365 v 0.71715 q 0,0.0855 0.0227,0.11752 0.024,0.032 0.0908,0.032 0.0548,0 0.0895,-0.009 l -0.003,0.2938 q -0.0961,0.0361 -0.20833,0.0361 -0.36592,0 -0.36993,-0.41934 v -0.76789 h -0.16693 v -0.28446 H 148.19 v -0.35524 z m 0.98425,1.82693 q -0.29114,0 -0.45406,-0.17361 -0.16293,-0.17361 -0.16293,-0.4968 v -0.11485 q 0,-0.34188 0.14957,-0.52751 0.14957,-0.18563 0.42869,-0.18563 0.27243,0 0.40999,0.17495 0.13755,0.17361 0.14022,0.51549 v 0.18563 h -0.75187 q 0.008,0.16026 0.0708,0.23504 0.0628,0.0735 0.19365,0.0735 0.18963,0 0.3165,-0.12955 l 0.14824,0.22837 q -0.0694,0.0962 -0.20166,0.15625 -0.13221,0.0588 -0.28712,0.0588 z m -0.23772,-0.88675 h 0.37794 v -0.0347 q -0.003,-0.12954 -0.0427,-0.19631 -0.0401,-0.0668 -0.13889,-0.0668 -0.0988,0 -0.14423,0.0708 -0.0441,0.0708 -0.0521,0.22703 z m 0.91213,0.0935 q 0,-0.35524 0.12019,-0.53018 0.1202,-0.17495 0.3499,-0.17495 0.16693,0 0.27778,0.14423 v -0.72383 h 0.38061 v 2.05129 h -0.34322 l -0.0174,-0.1469 q -0.11619,0.17361 -0.29915,0.17361 -0.22703,0 -0.34722,-0.17361 -0.11886,-0.17361 -0.12153,-0.51015 z m 0.37928,0.0948 q 0,0.21367 0.0454,0.29915 0.0454,0.0841 0.15358,0.0841 0.11218,0 0.16961,-0.10016 v -0.65972 q -0.0561,-0.10684 -0.16827,-0.10684 -0.10417,0 -0.15225,0.0841 -0.0481,0.0841 -0.0481,0.29915 z m 2.78446,-0.004 q 0,0.35123 -0.11218,0.52751 -0.11218,0.17495 -0.35257,0.17495 -0.1883,0 -0.30181,-0.1696 l -0.012,0.14289 h -0.34856 v -2.05129 h 0.37794 v 0.72383 q 0.10684,-0.14423 0.28178,-0.14423 0.24039,0 0.35257,0.17495 0.11218,0.17361 0.11485,0.51015 z m -0.37794,-0.0948 q 0,-0.22836 -0.0441,-0.30582 -0.0441,-0.0788 -0.15358,-0.0788 -0.11886,0 -0.17361,0.10817 v 0.65839 q 0.0507,0.1015 0.17628,0.1015 0.10817,0 0.14957,-0.0708 0.0427,-0.0708 0.0454,-0.27511 z m 1.06838,0.14156 0.19231,-0.81597 h 0.40331 l -0.47543,1.66133 q -0.10684,0.36725 -0.40198,0.36725 -0.0681,0 -0.15491,-0.0254 v -0.29514 l 0.0441,0.001 q 0.0881,0 0.13221,-0.0347 0.0454,-0.0334 0.0681,-0.11752 l 0.0294,-0.0975 -0.41667,-1.45967 h 0.40599 z m 2.77378,-0.1923 q 0,0.4821 -0.26042,0.70112 l 0.26843,0.24038 -0.24706,0.22704 -0.35791,-0.3272 -0.10283,0.007 q -0.32986,0 -0.51683,-0.22302 -0.18563,-0.22436 -0.18697,-0.61966 v -0.30449 q 0,-0.40064 0.18563,-0.625 0.18564,-0.2257 0.5155,-0.2257 0.32185,0 0.50881,0.21635 0.18697,0.21635 0.19365,0.60764 z m -0.39397,-0.30182 q 0,-0.26576 -0.0761,-0.39263 -0.0761,-0.12687 -0.23237,-0.12687 -0.15625,0 -0.23104,0.1242 -0.0748,0.12286 -0.0775,0.37527 v 0.32185 q 0,0.26709 0.0761,0.39396 0.0775,0.12687 0.23505,0.12687 0.15358,0 0.22836,-0.12553 0.0761,-0.12687 0.0775,-0.38596 z m 1.36886,0.99092 q -0.11752,0.15892 -0.31517,0.15892 -0.19899,0 -0.30182,-0.13622 -0.10283,-0.13755 -0.10283,-0.3993 v -0.93617 h 0.37794 v 0.94552 q 0.003,0.211 0.14023,0.211 0.12954,0 0.18696,-0.11218 v -1.04434 h 0.38061 v 1.44498 h -0.35523 z m 1.21929,0.15892 q -0.29113,0 -0.45406,-0.17361 -0.16293,-0.17361 -0.16293,-0.4968 v -0.11485 q 0,-0.34188 0.14957,-0.52751 0.14958,-0.18563 0.42869,-0.18563 0.27244,0 0.40999,0.17495 0.13756,0.17361 0.14023,0.51549 v 0.18563 h -0.75188 q 0.008,0.16026 0.0708,0.23504 0.0628,0.0735 0.19365,0.0735 0.18964,0 0.31651,-0.12955 l 0.14823,0.22837 q -0.0694,0.0962 -0.20165,0.15625 -0.13221,0.0588 -0.28713,0.0588 z m -0.23771,-0.88675 h 0.37793 v -0.0347 q -0.003,-0.12954 -0.0427,-0.19631 -0.0401,-0.0668 -0.13889,-0.0668 -0.0988,0 -0.14423,0.0708 -0.0441,0.0708 -0.0521,0.22703 z m 1.30876,-0.58494 0.0107,0.1429 q 0.12821,-0.16961 0.33521,-0.16961 0.3726,0 0.38328,0.52217 v 0.94952 h -0.37928 v -0.92147 q 0,-0.12287 -0.0374,-0.17762 -0.0361,-0.0561 -0.1282,-0.0561 -0.10284,0 -0.16026,0.1055 v 1.04968 h -0.37928 v -1.44498 z m 1.43964,-0.35524 v 0.35524 h 0.19364 v 0.28446 h -0.19364 v 0.71715 q 0,0.0855 0.0227,0.11752 0.024,0.032 0.0908,0.032 0.0548,0 0.0895,-0.009 l -0.003,0.2938 q -0.0961,0.0361 -0.20833,0.0361 -0.36592,0 -0.36993,-0.41934 v -0.76789 h -0.16693 v -0.28446 h 0.16693 v -0.35524 z m 0.79728,1.80022 h -0.37928 v -1.44498 h 0.37928 z m -0.39664,-1.81891 q 0,-0.0881 0.0561,-0.14423 0.0561,-0.0561 0.14958,-0.0561 0.0935,0 0.14957,0.0561 0.0561,0.0561 0.0561,0.14423 0,0.0868 -0.0561,0.14423 -0.0548,0.0574 -0.14957,0.0574 -0.0948,0 -0.15091,-0.0574 -0.0548,-0.0574 -0.0548,-0.14423 z m 1.03499,0.37393 0.0107,0.1429 q 0.1282,-0.16961 0.3352,-0.16961 0.3726,0 0.38328,0.52217 v 0.94952 h -0.37927 v -0.92147 q 0,-0.12287 -0.0374,-0.17762 -0.0361,-0.0561 -0.12821,-0.0561 -0.10283,0 -0.16026,0.1055 v 1.04968 h -0.37927 v -1.44498 z m 2.65225,0.65171 H 165.037 v 0.79327 h -0.39263 v -1.94445 h 1.0764 v 0.32719 H 165.037 v 0.49814 h 0.61031 z m 0.92015,0.79327 q -0.016,-0.0334 -0.032,-0.11218 -0.1015,0.13889 -0.27511,0.13889 -0.18163,0 -0.30182,-0.12019 -0.11886,-0.12019 -0.11886,-0.31117 0,-0.22703 0.14423,-0.35123 0.14557,-0.12419 0.41801,-0.12687 h 0.11485 v -0.11618 q 0,-0.0975 -0.0334,-0.13756 -0.0334,-0.0401 -0.0975,-0.0401 -0.14156,0 -0.14156,0.1656 h -0.37794 q 0,-0.20032 0.14958,-0.32986 0.1509,-0.13088 0.38061,-0.13088 0.23771,0 0.36725,0.1242 0.13088,0.12286 0.13088,0.35256 v 0.67976 q 0.003,0.18697 0.0534,0.29247 v 0.0227 z m -0.22303,-0.26976 q 0.0628,0 0.10684,-0.0254 0.0441,-0.0254 0.0654,-0.0601 v -0.30049 h -0.0908 q -0.0962,0 -0.15225,0.0614 -0.0548,0.0614 -0.0548,0.16426 0,0.16026 0.12553,0.16026 z m 1.22062,0.26976 h -0.37927 v -1.44498 h 0.37927 z m -0.39663,-1.81891 q 0,-0.0881 0.0561,-0.14423 0.0561,-0.0561 0.14957,-0.0561 0.0935,0 0.14957,0.0561 0.0561,0.0561 0.0561,0.14423 0,0.0868 -0.0561,0.14423 -0.0548,0.0574 -0.14957,0.0574 -0.0948,0 -0.15091,-0.0574 -0.0548,-0.0574 -0.0548,-0.14423 z m 0.63836,1.05235 q 0,-0.35524 0.12019,-0.53018 0.12019,-0.17495 0.34989,-0.17495 0.16694,0 0.27778,0.14423 v -0.72383 h 0.38061 v 2.05129 h -0.34321 l -0.0174,-0.1469 q -0.11618,0.17361 -0.29914,0.17361 -0.22703,0 -0.34723,-0.17361 -0.11885,-0.17361 -0.12152,-0.51015 z m 0.37927,0.0948 q 0,0.21367 0.0454,0.29915 0.0454,0.0841 0.15358,0.0841 0.11218,0 0.1696,-0.10016 v -0.65972 q -0.0561,-0.10684 -0.16827,-0.10684 -0.10416,0 -0.15224,0.0841 -0.0481,0.0841 -0.0481,0.29915 z m 1.42362,0.67174 h -0.37928 v -1.44498 h 0.37928 z m -0.39664,-1.81891 q 0,-0.0881 0.0561,-0.14423 0.0561,-0.0561 0.14957,-0.0561 0.0935,0 0.14958,0.0561 0.0561,0.0561 0.0561,0.14423 0,0.0868 -0.0561,0.14423 -0.0548,0.0574 -0.14958,0.0574 -0.0948,0 -0.15091,-0.0574 -0.0547,-0.0574 -0.0547,-0.14423 z m 0.63836,1.05235 q 0,-0.35524 0.12019,-0.53018 0.12019,-0.17495 0.34989,-0.17495 0.16694,0 0.27778,0.14423 v -0.72383 h 0.38061 v 2.05129 h -0.34322 l -0.0174,-0.1469 q -0.11618,0.17361 -0.29914,0.17361 -0.22703,0 -0.34723,-0.17361 -0.11885,-0.17361 -0.12152,-0.51015 z m 0.37927,0.0948 q 0,0.21367 0.0454,0.29915 0.0454,0.0841 0.15358,0.0841 0.11218,0 0.1696,-0.10016 v -0.65972 q -0.0561,-0.10684 -0.16827,-0.10684 -0.10417,0 -0.15224,0.0841 -0.0481,0.0841 -0.0481,0.29915 z m 1.61058,0.69845 q -0.29113,0 -0.45406,-0.17361 -0.16293,-0.17361 -0.16293,-0.4968 v -0.11485 q 0,-0.34188 0.14957,-0.52751 0.14958,-0.18563 0.42869,-0.18563 0.27244,0 0.40999,0.17495 0.13756,0.17361 0.14023,0.51549 v 0.18563 h -0.75187 q 0.008,0.16026 0.0708,0.23504 0.0628,0.0735 0.19364,0.0735 0.18964,0 0.31651,-0.12955 l 0.14823,0.22837 q -0.0694,0.0962 -0.20165,0.15625 -0.13221,0.0588 -0.28713,0.0588 z m -0.23771,-0.88675 h 0.37794 v -0.0347 q -0.003,-0.12954 -0.0427,-0.19631 -0.0401,-0.0668 -0.13889,-0.0668 -0.0988,0 -0.14423,0.0708 -0.0441,0.0708 -0.0521,0.22703 z"
       id="text363"
       style="font-weight:bold;font-size:2.73505px;font-family:'Roboto Condensed';-inkscape-font-specification:'Roboto Condensed, Bold';text-align:center;text-anchor:middle;fill:#f3aaf4;stroke-width:0.181"
       aria-label="created by Quentin Faidide" />
  </g>
</svg>
